<?xml version="1.0" encoding="UTF-8"?>
<svg version="1.1" xmlns="http://www.w3.org/2000/svg" width="407" height="386">
<path d="M0 0 C11.55 0 23.1 0 35 0 C35 0.66 35 1.32 35 2 C32.36 2.99 29.72 3.98 27 5 C26.97687434 13.97920777 26.95908377 22.95840537 26.94818783 31.93763638 C26.94295949 36.10662828 26.93586274 40.27559987 26.92456055 44.44458008 C26.91372992 48.46457686 26.90772279 52.48455405 26.90512276 56.50456429 C26.90326882 58.04162975 26.89964881 59.57869409 26.89426994 61.11575127 C26.88705716 63.26135487 26.88600916 65.40687655 26.88647461 67.55249023 C26.884254 68.77604721 26.88203339 69.99960419 26.87974548 71.26023865 C26.68714072 73.9122807 26.68714072 73.9122807 28 75 C30.32817964 75.36760731 32.6618385 75.70241581 35 76 C35 76.99 35 77.98 35 79 C23.45 79 11.9 79 0 79 C0 78.01 0 77.02 0 76 C2.05078125 75.77213542 4.1015625 75.54427083 6.15234375 75.31640625 C8.01140229 75.18113386 8.01140229 75.18113386 9 74 C9.15978803 71.55416014 9.25937145 69.13246453 9.31640625 66.68359375 C9.33505737 66.03588013 9.3537085 65.3881665 9.3729248 64.7208252 C9.44140265 62.29319348 9.50143617 59.86532952 9.5625 57.4375 C9.706875 52.013125 9.85125 46.58875 10 41 C-2.54 41 -15.08 41 -28 41 C-27.855625 46.424375 -27.71125 51.84875 -27.5625 57.4375 C-27.51939697 59.15122803 -27.47629395 60.86495605 -27.43188477 62.63061523 C-27.39377609 63.98161896 -27.35530819 65.33261263 -27.31640625 66.68359375 C-27.29993042 67.39100708 -27.28345459 68.09842041 -27.26647949 68.82727051 C-27.45238481 72.20218988 -27.45238481 72.20218988 -26 75 C-24.65252916 75.23075082 -23.29622435 75.41153063 -21.9375 75.5625 C-20.638125 75.706875 -19.33875 75.85125 -18 76 C-18 76.99 -18 77.98 -18 79 C-29.88 79 -41.76 79 -54 79 C-53.67 78.01 -53.34 77.02 -53 76 C-49.535 75.505 -49.535 75.505 -46 75 C-43.88557516 70.1409688 -43.88441532 65.93483792 -43.92651367 60.74951172 C-43.97221641 47.75165389 -41.51765948 39.4868191 -34 29 C-33.27538593 27.85801076 -32.55262452 26.71484311 -31.83203125 25.5703125 C-30.92517578 24.29800781 -30.92517578 24.29800781 -30 23 C-29.34 23 -28.68 23 -28 23 C-28 27.29 -28 31.58 -28 36 C-15.46 36 -2.92 36 10 36 C9.67 25.77 9.34 15.54 9 5 C6.03 4.01 3.06 3.02 0 2 C0 1.34 0 0.68 0 0 Z " fill="#2A2928" transform="translate(237,118)"/>
<path d="M0 0 C0.99 0 1.98 0 3 0 C6.31351456 6.44964562 9.6050876 12.91013702 12.8815918 19.37866211 C13.99895273 21.57816723 15.12132521 23.77513389 16.2487793 25.96948242 C17.86788851 29.1228598 19.46879512 32.28490684 21.06640625 35.44921875 C21.57466446 36.42960617 22.08292267 37.40999359 22.60658264 38.42008972 C23.06713547 39.34066666 23.52768829 40.26124359 24.00219727 41.2097168 C24.41301041 42.0157988 24.82382355 42.8218808 25.24708557 43.65238953 C26.16763447 46.52268945 25.8660962 48.14032742 25 51 C23.58984375 53.45703125 23.58984375 53.45703125 21.9375 55.8125 C21.38964844 56.60269531 20.84179688 57.39289063 20.27734375 58.20703125 C19.85582031 58.79871094 19.43429688 59.39039063 19 60 C16.625 59.375 16.625 59.375 14 58 C13.34 56.02 12.68 54.04 12 52 C2.1 52.33 -7.8 52.66 -18 53 C-23.01277926 62.69693405 -23.01277926 62.69693405 -23 73 C-20.94686189 75.71014231 -19.08858693 76.48931754 -15.8125 77.1875 C-14.554375 77.455625 -13.29625 77.72375 -12 78 C-12 78.66 -12 79.32 -12 80 C-22.56 80 -33.12 80 -44 80 C-44 79.34 -44 78.68 -44 78 C-43.443125 77.896875 -42.88625 77.79375 -42.3125 77.6875 C-37.98667769 76.40144472 -35.58590376 74.87242356 -33.04296875 71.0859375 C-31.2506655 67.66899046 -29.69557343 64.14445885 -28.15136719 60.60986328 C-26.90358199 57.78144434 -25.60189949 54.9823941 -24.2890625 52.18359375 C-19.90780162 42.82352783 -15.62488703 33.4203955 -11.41015625 23.984375 C-11.11371719 23.32100632 -10.81727814 22.65763763 -10.51185608 21.97416687 C-9.06600377 18.73659694 -7.62421824 15.4973015 -6.1887207 12.25512695 C-5.67011475 11.08941162 -5.15150879 9.92369629 -4.6171875 8.72265625 C-4.15940918 7.68890869 -3.70163086 6.65516113 -3.22998047 5.59008789 C-2 3 -2 3 0 0 Z M-5 21 C-6.83629082 25.1445297 -8.66853742 29.29083471 -10.5 33.4375 C-11.02464844 34.62150391 -11.54929687 35.80550781 -12.08984375 37.02539062 C-12.58613281 38.15009766 -13.08242187 39.27480469 -13.59375 40.43359375 C-14.05458984 41.47572021 -14.51542969 42.51784668 -14.99023438 43.59155273 C-16.06444205 45.71844429 -16.06444205 45.71844429 -16 47 C-7.75 47 0.5 47 9 47 C7.5975 44.009375 6.195 41.01875 4.75 37.9375 C4.0998291 36.54519165 4.0998291 36.54519165 3.43652344 35.12475586 C1.15328364 30.28141016 -1.27348755 25.6088066 -4 21 C-4.33 21 -4.66 21 -5 21 Z " fill="#3A3937" transform="translate(180,56)"/>
<path d="M0 0 C1.89492188 0.15275391 1.89492188 0.15275391 3.828125 0.30859375 C4.79234375 0.39238281 5.7565625 0.47617188 6.75 0.5625 C6.2645723 0.92970154 5.77914459 1.29690308 5.27900696 1.67523193 C3.10238812 4.3618536 3.33807896 6.32640754 3.28588867 9.75878906 C3.24651436 11.67658173 3.24651436 11.67658173 3.2063446 13.63311768 C3.19293019 15.03144762 3.18015414 16.42978381 3.16796875 17.828125 C3.14603134 19.26439936 3.12309287 20.70065874 3.09919739 22.13690186 C3.05231059 25.14965837 3.01567612 28.16231341 2.98657227 31.17529297 C2.94885952 35.02331061 2.88886238 38.8705749 2.82145214 42.71817398 C2.77143925 45.68647581 2.73190883 48.65484593 2.69561195 51.62334442 C2.67731836 53.04105342 2.65617075 54.45872874 2.63204002 55.8763504 C2.60003414 57.86697147 2.58331133 59.85782015 2.56713867 61.84863281 C2.54740242 63.5438205 2.54740242 63.5438205 2.52726746 65.27325439 C2.68102575 69.24475748 2.68102575 69.24475748 4.75 75.5625 C-0.53 75.5625 -5.81 75.5625 -11.25 75.5625 C-10.26 75.0675 -10.26 75.0675 -9.25 74.5625 C-9.20063117 69.75701403 -9.16429557 64.95167506 -9.14013672 60.14599609 C-9.13006746 58.51055328 -9.11641119 56.87512851 -9.09912109 55.23974609 C-9.07491295 52.8915563 -9.06352643 50.54360412 -9.0546875 48.1953125 C-9.04436493 47.46192657 -9.03404236 46.72854065 -9.02340698 45.97293091 C-9.02300632 44.16787303 -9.12787245 42.3634217 -9.25 40.5625 C-11.81136221 38.00113779 -12.91561331 38.26583143 -16.4765625 38.1484375 C-18.0234375 38.09042969 -18.0234375 38.09042969 -19.6015625 38.03125 C-21.22191406 37.98484375 -21.22191406 37.98484375 -22.875 37.9375 C-23.96296875 37.89882812 -25.0509375 37.86015625 -26.171875 37.8203125 C-28.86441165 37.72583753 -31.55693757 37.64027569 -34.25 37.5625 C-33.92 36.9025 -33.59 36.2425 -33.25 35.5625 C-25.33 35.8925 -17.41 36.2225 -9.25 36.5625 C-9.25 25.0125 -9.25 13.4625 -9.25 1.5625 C-9.91 1.2325 -10.57 0.9025 -11.25 0.5625 C-7.43483536 -0.73812431 -3.97438237 -0.33119853 0 0 Z " fill="#3B3A38" transform="translate(257.25,119.4375)"/>
<path d="M0 0 C0.66 0.33 1.32 0.66 2 1 C2.59355614 3.64860427 2.74209269 6.29197322 3 9 C4.32 9.33 5.64 9.66 7 10 C7 10.33 7 10.66 7 11 C5.35 11.33 3.7 11.66 2 12 C1.957279 13.66611905 1.95936168 15.33382885 2 17 C2.33 17.33 2.66 17.66 3 18 C3.14624162 20.05944378 3.22741837 22.12357232 3.28125 24.1875 C3.31863281 25.44304687 3.35601562 26.69859375 3.39453125 27.9921875 C3.44820561 30.00029803 3.50021886 32.00844777 3.55224609 34.01660156 C3.60388807 35.94867472 3.66122915 37.88059293 3.71875 39.8125 C3.74904297 40.97394531 3.77933594 42.13539063 3.81054688 43.33203125 C3.70148037 45.91989537 3.70148037 45.91989537 5 47 C6.34747084 47.23075082 7.70377565 47.41153063 9.0625 47.5625 C10.361875 47.706875 11.66125 47.85125 13 48 C13 48.99 13 49.98 13 51 C1.12 51 -10.76 51 -23 51 C-22.67 50.01 -22.34 49.02 -22 48 C-18.535 47.505 -18.535 47.505 -15 47 C-12.08070078 40.26225739 -12.64446974 33.06109801 -12.609375 25.85351562 C-12.46361361 19.363085 -11.88964287 15.27214945 -8 10 C-6.33729713 8.66172696 -4.67083819 7.32810215 -3 6 C-1.19020859 2.88337092 -1.19020859 2.88337092 0 0 Z " fill="#3A3937" transform="translate(206,146)"/>
<path d="M0 0 C0.99 0 1.98 0 3 0 C2.09122511 4.40830801 -0.25050042 7.56784655 -2.8125 11.1875 C-3.30242432 11.8894751 -3.79234863 12.5914502 -4.29711914 13.31469727 C-5.858358 15.5476924 -7.42839637 17.77429047 -9 20 C-9.99233738 21.41135296 -10.98452742 22.82280953 -11.9765625 24.234375 C-14.47557125 27.78479344 -16.98277546 31.32934561 -19.49267578 34.87207031 C-28.70840337 47.88215804 -37.86410057 60.93377089 -47 74 C-49.37457339 77.39613195 -51.74954933 80.79198162 -54.125 84.1875 C-54.69806885 85.00694092 -55.2711377 85.82638184 -55.86157227 86.6706543 C-58.73477485 90.77598661 -61.61589391 94.87543123 -64.51171875 98.96484375 C-65.06778809 99.75028564 -65.62385742 100.53572754 -66.19677734 101.3449707 C-67.2491992 102.83009728 -68.30284896 104.31435472 -69.35791016 105.79760742 C-71.86668074 109.28287091 -71.86668074 109.28287091 -74 113 C-75.32 112.67 -76.64 112.34 -78 112 C-76.38095817 106.95530261 -73.36956719 103.1374982 -70.25 98.9375 C-69.06511585 97.31995487 -67.88156835 95.70142994 -66.69921875 94.08203125 C-66.08739746 93.24494629 -65.47557617 92.40786133 -64.84521484 91.54541016 C-61.86870804 87.4394218 -58.96346755 83.28455375 -56.0625 79.125 C-55.4835498 78.29564941 -54.90459961 77.46629883 -54.30810547 76.61181641 C-53.12995854 74.9233021 -51.95222507 73.23449924 -50.77490234 71.54541016 C-47.81304139 67.29776747 -44.84427369 63.05496288 -41.875 58.8125 C-41.29387451 57.98210205 -40.71274902 57.1517041 -40.11401367 56.29614258 C-34.92133851 48.88001393 -29.70294502 41.48224041 -24.4765625 34.08984375 C-22.96208462 31.9463367 -21.4495271 29.80148642 -19.9375 27.65625 C-15.07673158 20.76070541 -10.20866028 13.87047591 -5.3125 7 C-4.8901709 6.40614502 -4.4678418 5.81229004 -4.03271484 5.20043945 C-1.11796712 1.11796712 -1.11796712 1.11796712 0 0 Z " fill="#1D1C1D" transform="translate(237,76)"/>
<path d="M0 0 C0.495 1.485 0.495 1.485 1 3 C1.66 3.33 2.32 3.66 3 4 C3.33 3.01 3.66 2.02 4 1 C5 3 5 3 4.2590332 5.23071289 C2.9585985 8.18185092 1.64700661 11.12658545 0.3125 14.0625 C-0.13544922 15.09439453 -0.58339844 16.12628906 -1.04492188 17.18945312 C-1.48771484 18.16978516 -1.93050781 19.15011719 -2.38671875 20.16015625 C-2.79108154 21.06386963 -3.19544434 21.96758301 -3.61206055 22.89868164 C-5 25 -5 25 -7.16333008 25.80249023 C-7.76943115 25.86766846 -8.37553223 25.93284668 -9 26 C-9.33 27.32 -9.66 28.64 -10 30 C-9.10692139 29.96447021 -8.21384277 29.92894043 -7.29370117 29.89233398 C-3.97841106 29.76307155 -0.66301197 29.63876868 2.65258789 29.51782227 C4.08723348 29.46447103 5.52180714 29.4091471 6.95629883 29.35180664 C9.01888519 29.269703 11.08162668 29.19471004 13.14453125 29.12109375 C14.38565674 29.0739624 15.62678223 29.02683105 16.90551758 28.97827148 C20 29 20 29 23 30 C24.6875 33.0625 24.6875 33.0625 26 36 C26.66 36 27.32 36 28 36 C29.38232443 34.37373596 30.71937515 32.7074998 32 31 C32.66 31.33 33.32 31.66 34 32 C32.35 34.31 30.7 36.62 29 39 C26.625 38.375 26.625 38.375 24 37 C23.34 35.02 22.68 33.04 22 31 C12.1 31.33 2.2 31.66 -8 32 C-13.01277926 41.69693405 -13.01277926 41.69693405 -13 52 C-10.94686189 54.71014231 -9.08858693 55.48931754 -5.8125 56.1875 C-4.554375 56.455625 -3.29625 56.72375 -2 57 C-2 57.66 -2 58.32 -2 59 C-12.56 59 -23.12 59 -34 59 C-34 58.34 -34 57.68 -34 57 C-33.1646875 56.8453125 -33.1646875 56.8453125 -32.3125 56.6875 C-27.98667769 55.40144472 -25.58590376 53.87242356 -23.04296875 50.0859375 C-21.26452001 46.69411823 -19.71917792 43.19733998 -18.18652344 39.68896484 C-16.83381055 36.62337229 -15.42448646 33.58733696 -14.0078125 30.55078125 C-9.2747025 20.3963192 -4.62906491 10.20224051 0 0 Z " fill="#2F2E2E" transform="translate(170,77)"/>
<path d="M0 0 C13.33394328 -0.37038731 13.33394328 -0.37038731 16.4375 1.35546875 C18 3 18 3 18.25 5.5 C18.1675 6.325 18.085 7.15 18 8 C18 8.99 18 9.98 18 11 C18.33 11.33 18.66 11.66 19 12 C18.6875 15.5 18.6875 15.5 18 19 C14.81453711 20.59273144 11.36800652 20.10141833 7.875 20.0625 C5.27625 20.041875 2.6775 20.02125 0 20 C0 13.4 0 6.8 0 0 Z M6 5 C6 5.99 6 6.98 6 8 C7.98 7.67 9.96 7.34 12 7 C12 6.34 12 5.68 12 5 C10.02 5 8.04 5 6 5 Z M6 12 C6 13.32 6 14.64 6 16 C9.465 15.505 9.465 15.505 13 15 C13 14.34 13 13.68 13 13 C10.69 12.67 8.38 12.34 6 12 Z " fill="#32312F" transform="translate(64,253)"/>
<path d="M0 0 C5 0 5 0 7.01953125 1.96875 C7.61121094 2.8040625 8.20289063 3.639375 8.8125 4.5 C9.41707031 5.3353125 10.02164062 6.170625 10.64453125 7.03125 C11.09183594 7.6809375 11.53914063 8.330625 12 9 C12.33 6.03 12.66 3.06 13 0 C14.98 0 16.96 0 19 0 C19 6.6 19 13.2 19 20 C13 20 13 20 11.1015625 18.46875 C10.61429687 17.8190625 10.12703125 17.169375 9.625 16.5 C9.12226563 15.8503125 8.61953125 15.200625 8.1015625 14.53125 C7.55628906 13.77328125 7.55628906 13.77328125 7 13 C6.67 15.31 6.34 17.62 6 20 C4.02 20 2.04 20 0 20 C0 13.4 0 6.8 0 0 Z " fill="#2B2929" transform="translate(344,253)"/>
<path d="M0 0 C2.206875 -0.061875 4.41375 -0.12375 6.6875 -0.1875 C8.54955078 -0.23970703 8.54955078 -0.23970703 10.44921875 -0.29296875 C14.2457708 0.02027812 16.01467371 0.69242347 19 3 C21.69774015 7.04661023 21.87298327 10.25263385 21 15 C18.41960837 18.83149061 18.41960837 18.83149061 15 20 C9.87709698 20.40683451 5.18521459 20.22742169 0 20 C0 13.4 0 6.8 0 0 Z M6 5 C6 8.63 6 12.26 6 16 C7.299375 15.855625 8.59875 15.71125 9.9375 15.5625 C10.66839844 15.48128906 11.39929688 15.40007812 12.15234375 15.31640625 C14.01140229 15.18113386 14.01140229 15.18113386 15 14 C15.25003964 10.54178598 15.25003964 10.54178598 15 7 C13.04366025 4.58878141 13.04366025 4.58878141 9.375 4.875 C7.704375 4.936875 7.704375 4.936875 6 5 Z " fill="#31302E" transform="translate(125,253)"/>
<path d="M0 0 C2.93038162 1.2469709 4.41759241 2.22345655 6.3125 4.75 C7.31199111 8.0210618 7.3581657 10.59742588 7 14 C4.80717579 17.52418176 2.82574918 19.46130746 -1 21 C-5.70500203 21.32825596 -9.14536538 20.60536619 -13 17.875 C-15.42147539 14.39412913 -16 12.23233716 -16 8 C-12.71907414 0.40206642 -7.76967041 -1.02670645 0 0 Z M-9 6 C-10.17110449 8.8596006 -10.17110449 8.8596006 -10 12 C-8.52006844 14.56338689 -8.52006844 14.56338689 -6 16 C-2.60845705 15.83849795 -1.41703243 15.41703243 1 13 C1.58345476 10.04253508 1.58345476 10.04253508 1 7 C-2.95471135 3.95791435 -4.82432728 3.129225 -9 6 Z " fill="#282625" transform="translate(108,253)"/>
<path d="M0 0 C1.98 0 3.96 0 6 0 C6 2.64 6 5.28 6 8 C8.31 8 10.62 8 13 8 C13 5.36 13 2.72 13 0 C14.98 0 16.96 0 19 0 C19 6.6 19 13.2 19 20 C17.02 20 15.04 20 13 20 C13 17.36 13 14.72 13 12 C10.69 12 8.38 12 6 12 C6 14.64 6 17.28 6 20 C4.02 20 2.04 20 0 20 C0 13.4 0 6.8 0 0 Z " fill="#292727" transform="translate(200,253)"/>
<path d="M0 0 C1.98 0 3.96 0 6 0 C7.32002556 2.55886504 8.63113782 5.12167068 9.9375 7.6875 C10.31068359 8.40873047 10.68386719 9.12996094 11.06835938 9.87304688 C12.93965239 13.56505742 14.48269556 16.83693096 15 21 C12.64828869 20.40138258 10.3140622 19.73075648 8 19 C7.67 18.34 7.34 17.68 7 17 C5.10466658 16.53476937 5.10466658 16.53476937 2.9375 16.375 C1.638125 16.25125 0.33875 16.1275 -1 16 C-1.33 17.32 -1.66 18.64 -2 20 C-3.98 20.33 -5.96 20.66 -8 21 C-7.32512263 16.18080529 -5.42034091 12.08116134 -3.4375 7.6875 C-2.9434668 6.57665039 -2.9434668 6.57665039 -2.43945312 5.44335938 C-1.63082877 3.62688438 -0.81602884 1.81316069 0 0 Z M3 7 C2.34 8.65 1.68 10.3 1 12 C2.32 12 3.64 12 5 12 C4.67 10.35 4.34 8.7 4 7 C3.67 7 3.34 7 3 7 Z " fill="#2C2B2B" transform="translate(40,253)"/>
<path d="M0 0 C5.28 0 10.56 0 16 0 C16 1.65 16 3.3 16 5 C12.7 5 9.4 5 6 5 C6 5.99 6 6.98 6 8 C8.97 8 11.94 8 15 8 C15 9.32 15 10.64 15 12 C12.03 12 9.06 12 6 12 C6 13.32 6 14.64 6 16 C9.3 16 12.6 16 16 16 C16 17.32 16 18.64 16 20 C10.72 20 5.44 20 0 20 C0 13.4 0 6.8 0 0 Z " fill="#2C2B2A" transform="translate(157,253)"/>
<path d="M0 0 C5.28 0 10.56 0 16 0 C16 1.65 16 3.3 16 5 C12.7 5 9.4 5 6 5 C6 5.99 6 6.98 6 8 C8.97 8 11.94 8 15 8 C15 9.32 15 10.64 15 12 C12.03 12 9.06 12 6 12 C6 13.32 6 14.64 6 16 C9.3 16 12.6 16 16 16 C16 17.32 16 18.64 16 20 C10.72 20 5.44 20 0 20 C0 13.4 0 6.8 0 0 Z " fill="#323131" transform="translate(317,253)"/>
<path d="M0 0 C5.28 0 10.56 0 16 0 C16 1.65 16 3.3 16 5 C12.7 5 9.4 5 6 5 C6 5.99 6 6.98 6 8 C8.97 8 11.94 8 15 8 C15 9.32 15 10.64 15 12 C12.03 12 9.06 12 6 12 C6 13.32 6 14.64 6 16 C9.3 16 12.6 16 16 16 C16 17.32 16 18.64 16 20 C10.72 20 5.44 20 0 20 C0 13.4 0 6.8 0 0 Z " fill="#2D2C2B" transform="translate(231,253)"/>
<path d="M0 0 C1.4540625 0.0309375 1.4540625 0.0309375 2.9375 0.0625 C4.30750201 2.99286877 5.65568552 5.93276914 7 8.875 C7.58491211 10.12506836 7.58491211 10.12506836 8.18164062 11.40039062 C8.54580078 12.20283203 8.90996094 13.00527344 9.28515625 13.83203125 C9.62554932 14.57042236 9.96594238 15.30881348 10.31665039 16.06958008 C10.9375 18.0625 10.9375 18.0625 9.9375 21.0625 C8.2875 20.7325 6.6375 20.4025 4.9375 20.0625 C4.6075 18.7425 4.2775 17.4225 3.9375 16.0625 C2.65875 16.165625 1.38 16.26875 0.0625 16.375 C-0.65679687 16.43300781 -1.37609375 16.49101562 -2.1171875 16.55078125 C-4.45769216 16.93643036 -4.45769216 16.93643036 -6.0625 20.0625 C-8.6875 20.75 -8.6875 20.75 -11.0625 21.0625 C-12.0625 19.0625 -12.0625 19.0625 -11.45751953 17.19897461 C-11.12349121 16.46171143 -10.78946289 15.72444824 -10.4453125 14.96484375 C-9.90583984 13.76311523 -9.90583984 13.76311523 -9.35546875 12.53710938 C-8.97003906 11.69986328 -8.58460938 10.86261719 -8.1875 10 C-7.80980469 9.15888672 -7.43210937 8.31777344 -7.04296875 7.45117188 C-3.70284853 0.07556834 -3.70284853 0.07556834 0 0 Z M-1.0625 7.0625 C-1.3925 8.7125 -1.7225 10.3625 -2.0625 12.0625 C-0.7425 11.7325 0.5775 11.4025 1.9375 11.0625 C0.9475 9.7425 -0.0425 8.4225 -1.0625 7.0625 Z " fill="#2A2927" transform="translate(267.0625,252.9375)"/>
<path d="M0 0 C1.98 0 3.96 0 6 0 C7.65 3.63 9.3 7.26 11 11 C12.98 7.37 14.96 3.74 17 0 C18.65 0 20.3 0 22 0 C21.3316356 4.37778684 19.77089558 8.22371853 18 12.25 C17.59007812 13.20519531 17.59007812 13.20519531 17.171875 14.1796875 C15.14074248 18.85925752 15.14074248 18.85925752 14 20 C12.00041636 20.04080783 9.99954746 20.04254356 8 20 C6.84727636 17.60727078 5.70271155 15.21118379 4.5625 12.8125 C4.23701172 12.13896484 3.91152344 11.46542969 3.57617188 10.77148438 C1.88320189 7.19355813 0.54637879 3.96317006 0 0 Z " fill="#2E2D2B" transform="translate(285,253)"/>
<path d="M0 0 C0.33 0.66 0.66 1.32 1 2 C0.69320312 2.60328125 0.38640625 3.2065625 0.0703125 3.828125 C-1.16980821 6.34457433 -1.20684986 7.96710487 -1.125 10.75 C-1.09792969 11.94882813 -1.09792969 11.94882813 -1.0703125 13.171875 C-1.04710937 13.77515625 -1.02390625 14.3784375 -1 15 C-1.66 15 -2.32 15 -3 15 C-2.99476318 15.62567871 -2.98952637 16.25135742 -2.98413086 16.89599609 C-2.96338382 19.72232057 -2.95034714 22.54862905 -2.9375 25.375 C-2.92912109 26.35984375 -2.92074219 27.3446875 -2.91210938 28.359375 C-2.90888672 29.30039063 -2.90566406 30.24140625 -2.90234375 31.2109375 C-2.89710693 32.08024902 -2.89187012 32.94956055 -2.88647461 33.84521484 C-3 36 -3 36 -4 38 C0.95 38.33 5.9 38.66 11 39 C10.34 38.01 9.68 37.02 9 36 C8.77294922 33.27270508 8.77294922 33.27270508 8.8046875 30.01953125 C8.81113281 28.85615234 8.81757813 27.69277344 8.82421875 26.49414062 C8.84097656 25.27919922 8.85773438 24.06425781 8.875 22.8125 C8.88402344 21.58595703 8.89304688 20.35941406 8.90234375 19.09570312 C8.92593983 16.06360705 8.95886159 13.03190062 9 10 C9.66 9.67 10.32 9.34 11 9 C11.02505615 9.81267334 11.0501123 10.62534668 11.07592773 11.46264648 C11.19149118 15.12110752 11.31439584 18.77928528 11.4375 22.4375 C11.47681641 23.71689453 11.51613281 24.99628906 11.55664062 26.31445312 C11.59853516 27.52939453 11.64042969 28.74433594 11.68359375 29.99609375 C11.72025146 31.12200928 11.75690918 32.2479248 11.79467773 33.40795898 C11.71218045 35.92853441 11.71218045 35.92853441 13 37 C14.34747084 37.23075082 15.70377565 37.41153063 17.0625 37.5625 C18.361875 37.706875 19.66125 37.85125 21 38 C21 38.99 21 39.98 21 41 C9.12 41 -2.76 41 -15 41 C-14.67 40.01 -14.34 39.02 -14 38 C-10.535 37.505 -10.535 37.505 -7 37 C-4.08070078 30.26225739 -4.64446974 23.06109801 -4.609375 15.85351562 C-4.46359005 9.36203599 -3.80048984 5.32219991 0 0 Z " fill="#272625" transform="translate(198,156)"/>
<path d="M0 0 C13.33495997 -0.37041555 13.33495997 -0.37041555 16.43359375 1.35546875 C18 3 18 3 18.3125 5.5 C18 8 18 8 17 11 C16.01 11.495 16.01 11.495 15 12 C14.27840576 13.64363134 13.60648579 15.31050386 13 17 C10.36 17 7.72 17 5 17 C5 15.02 5 13.04 5 11 C7.97 11 10.94 11 14 11 C14.66 9.02 15.32 7.04 16 5 C15.01 4.01 14.02 3.02 13 2 C12.67 2.33 12.34 2.66 12 3 C12.165 3.825 12.33 4.65 12.5 5.5 C12.665 6.325 12.83 7.15 13 8 C12 9 12 9 8.5 9.125 C5 9 5 9 4 8 C3.95936168 6.33382885 3.957279 4.66611905 4 3 C3.01 2.67 2.02 2.34 1 2 C1 7.61 1 13.22 1 19 C9.415 18.505 9.415 18.505 18 18 C16 20 16 20 12.3046875 20.1953125 C10.82798332 20.1838709 9.35138199 20.15789907 7.875 20.125 C5.27625 20.08375 2.6775 20.0425 0 20 C0 13.4 0 6.8 0 0 Z M6 5 C6 5.99 6 6.98 6 8 C7.98 7.67 9.96 7.34 12 7 C12 6.34 12 5.68 12 5 C10.02 5 8.04 5 6 5 Z M6 12 C6 13.32 6 14.64 6 16 C9.465 15.505 9.465 15.505 13 15 C13 14.34 13 13.68 13 13 C10.69 12.67 8.38 12.34 6 12 Z " fill="#252323" transform="translate(64,253)"/>
<path d="M0 0 C0.33 0 0.66 0 1 0 C1.02472039 4.64477144 1.04286968 9.28950457 1.05493164 13.93432617 C1.05996014 15.51441108 1.06678378 17.09449134 1.07543945 18.67456055 C1.08756992 20.94581246 1.09324313 23.21700285 1.09765625 25.48828125 C1.10281754 26.19463211 1.10797882 26.90098297 1.11329651 27.6287384 C1.11364803 30.70254391 0.9803186 33.0590442 0 36 C4.95 36 9.9 36 15 36 C15.33 35.01 15.66 34.02 16 33 C16.495 33.495 16.495 33.495 17 34 C19.32817964 34.36760731 21.6618385 34.70241581 24 35 C24 35.99 24 36.98 24 38 C12.45 38 0.9 38 -11 38 C-11 37.01 -11 36.02 -11 35 C-8.94921875 34.77213542 -6.8984375 34.54427083 -4.84765625 34.31640625 C-2.98859771 34.18113386 -2.98859771 34.18113386 -2 33 C-1.85257984 30.6382379 -1.76515541 28.30183479 -1.71875 25.9375 C-1.70034058 25.23101318 -1.68193115 24.52452637 -1.66296387 23.79663086 C-1.60404448 21.53117416 -1.55129573 19.26564141 -1.5 17 C-1.43254576 14.02066593 -1.3588781 11.04158437 -1.28125 8.0625 C-1.26767456 7.3708374 -1.25409912 6.6791748 -1.2401123 5.96655273 C-1.11280181 1.11280181 -1.11280181 1.11280181 0 0 Z " fill="#272625" transform="translate(248,159)"/>
<path d="M0 0 C2.206875 -0.061875 4.41375 -0.12375 6.6875 -0.1875 C8.54955078 -0.23970703 8.54955078 -0.23970703 10.44921875 -0.29296875 C14.2457708 0.02027812 16.01467371 0.69242347 19 3 C21.69774015 7.04661023 21.87298327 10.25263385 21 15 C18.41960837 18.83149061 18.41960837 18.83149061 15 20 C9.87709698 20.40683451 5.18521459 20.22742169 0 20 C0 13.4 0 6.8 0 0 Z M2 2 C2 7.61 2 13.22 2 19 C3.98 19 5.96 19 8 19 C7.67 18.34 7.34 17.68 7 17 C8.98 16.67 10.96 16.34 13 16 C12.67 16.66 12.34 17.32 12 18 C14.63361256 17.62376963 16.07220172 16.94785432 18.25 15.375 C20.61110785 12.17063934 20.29868478 9.88290217 20 6 C19.01 5.67 18.02 5.34 17 5 C16.67 4.01 16.34 3.02 16 2 C10.68002183 0.80300491 7.86263308 1.26717087 2 2 Z " fill="#262523" transform="translate(125,253)"/>
<path d="M0 0 C5 0 5 0 6.80078125 1.53125 C7.29964844 2.1809375 7.79851562 2.830625 8.3125 3.5 C8.82425781 4.1496875 9.33601563 4.799375 9.86328125 5.46875 C10.23839844 5.9740625 10.61351562 6.479375 11 7 C10.67 7.66 10.34 8.32 10 9 C8.62437146 7.71034824 7.29233607 6.37310707 6 5 C6 4.34 6 3.68 6 3 C4.68 3 3.36 3 2 3 C2.01160156 3.66386719 2.02320313 4.32773437 2.03515625 5.01171875 C2.12478032 13.78207381 2.12478032 13.78207381 1 18 C1.66 17.67 2.32 17.34 3 17 C3.46523063 15.10466658 3.46523063 15.10466658 3.625 12.9375 C3.74875 11.638125 3.8725 10.33875 4 9 C7.24271506 9.5590888 8.93057424 10.4132178 11 13 C11 13.66 11 14.32 11 15 C11.66 15 12.32 15 13 15 C13.33 16.32 13.66 17.64 14 19 C15.32 19 16.64 19 18 19 C18 14.38 18 9.76 18 5 C18.33 5 18.66 5 19 5 C19 9.95 19 14.9 19 20 C13 20 13 20 11.1015625 18.46875 C10.61429687 17.8190625 10.12703125 17.169375 9.625 16.5 C9.12226563 15.8503125 8.61953125 15.200625 8.1015625 14.53125 C7.55628906 13.77328125 7.55628906 13.77328125 7 13 C6.67 15.31 6.34 17.62 6 20 C4.02 20 2.04 20 0 20 C0 13.4 0 6.8 0 0 Z " fill="#252424" transform="translate(344,253)"/>
<path d="M0 0 C1 3 1 3 0.08203125 4.90234375 C-0.27503906 5.59457031 -0.63210937 6.28679687 -1 7 C-1.34975352 9.2563195 -1.34975352 9.2563195 -1.3125 11.5625 C-1.32925781 12.32691406 -1.34601563 13.09132813 -1.36328125 13.87890625 C-0.90262193 16.56856225 -0.17325744 17.38223886 2 19 C4.03341887 19.77813652 4.03341887 19.77813652 6.1875 20.1875 C7.445625 20.455625 8.70375 20.72375 10 21 C10 21.66 10 22.32 10 23 C-0.56 23 -11.12 23 -22 23 C-22 22.34 -22 21.68 -22 21 C-21.38511719 20.76925781 -20.77023438 20.53851563 -20.13671875 20.30078125 C-14.85950482 18.21925534 -14.85950482 18.21925534 -10.9375 14.25 C-10.628125 13.5075 -10.31875 12.765 -10 12 C-9.25 13.75 -9.25 13.75 -9 16 C-10.8125 18.25 -10.8125 18.25 -13 20 C-13.66 20 -14.32 20 -15 20 C-15 20.66 -15 21.32 -15 22 C-13.700625 21.7525 -13.700625 21.7525 -12.375 21.5 C-9.18797843 21.02784866 -6.21270799 21 -3 21 C-2.34 20.67 -1.68 20.34 -1 20 C-1.66 19.01 -2.32 18.02 -3 17 C-3.75691701 10.73823197 -3.50664076 5.40607117 0 0 Z " fill="#1F1E1E" transform="translate(158,113)"/>
<path d="M0 0 C0.94875 0.04125 1.8975 0.0825 2.875 0.125 C2.875 3.25400213 2.45048683 4.49918862 0.875 7.125 C-0.115 7.62 -0.115 7.62 -1.125 8.125 C-0.135 8.785 0.855 9.445 1.875 10.125 C1 15 1 15 -0.125 16.125 C-3.0625 16.375 -3.0625 16.375 -6.125 16.125 C-6.785 15.135 -7.445 14.145 -8.125 13.125 C-7.3125 10.8125 -7.3125 10.8125 -6.125 8.125 C-5.96 7.073125 -5.795 6.02125 -5.625 4.9375 C-4.90646565 0.89574429 -4.11854748 0.1647419 0 0 Z M-2.125 2.125 C-1.125 5.125 -1.125 5.125 -1.125 5.125 Z M-4.125 11.125 C-4.125 12.115 -4.125 13.105 -4.125 14.125 C-3.135 14.125 -2.145 14.125 -1.125 14.125 C-1.125 13.465 -1.125 12.805 -1.125 12.125 C-2.115 11.795 -3.105 11.465 -4.125 11.125 Z " fill="#1D1D1D" transform="translate(268.125,299.875)"/>
<path d="M0 0 C0.66 0.33 1.32 0.66 2 1 C1.649375 1.886875 1.29875 2.77375 0.9375 3.6875 C-0.02000931 7.07069957 -0.12658955 8.71411382 1 12 C3.79870027 13.39935013 5.90498792 13.25265405 9 13 C10.94032404 11.81104764 10.94032404 11.81104764 12 10 C12 9.01 12 8.02 12 7 C12.99 7.33 13.98 7.66 15 8 C14.79570164 11.6773705 14.22067989 12.80084985 11.4375 15.3125 C7.16309076 17.41084636 4.6959013 17.32385526 0 17 C-0.33 16.01 -0.66 15.02 -1 14 C-3.01508358 13.26676204 -3.01508358 13.26676204 -5 13 C-5.61538462 5.73846154 -5.61538462 5.73846154 -2.5 2 C-1.675 1.34 -0.85 0.68 0 0 Z " fill="#2E2D2B" transform="translate(99,255)"/>
<path d="M0 0 C0.33 0.99 0.66 1.98 1 3 C1.66 3.33 2.32 3.66 3 4 C3.33 3.01 3.66 2.02 4 1 C4.33 1.66 4.66 2.32 5 3 C3.92578125 6.00390625 3.92578125 6.00390625 2.3125 9.5625 C1.79300781 10.73941406 1.27351562 11.91632813 0.73828125 13.12890625 C-1 16 -1 16 -3.20703125 16.90234375 C-4.09455078 16.95068359 -4.09455078 16.95068359 -5 17 C-5 18.65 -5 20.3 -5 22 C-5.99 22.33 -6.98 22.66 -8 23 C-8.59864141 17.14453867 -6.55194015 13.21163746 -4 8.125 C-3.6184375 7.34125 -3.236875 6.5575 -2.84375 5.75 C-1.90628615 3.82819911 -0.95455414 1.91336968 0 0 Z " fill="#2A2A2A" transform="translate(170,77)"/>
<path d="M0 0 C1.32 0 2.64 0 4 0 C5.30062431 3.81516464 4.89369853 7.27561763 4.5625 11.25 C4.46066406 12.51328125 4.35882813 13.7765625 4.25390625 15.078125 C4.17011719 16.04234375 4.08632813 17.0065625 4 18 C2.68 18 1.36 18 0 18 C-0.33 16.68 -0.66 15.36 -1 14 C-1.66 14 -2.32 14 -3 14 C-4.625 12 -4.625 12 -6 10 C-5.67 9.34 -5.34 8.68 -5 8 C-3.68 9.32 -2.36 10.64 -1 12 C-0.67 8.04 -0.34 4.08 0 0 Z " fill="#333230" transform="translate(358,254)"/>
<path d="M0 0 C0.66 0 1.32 0 2 0 C1.67 1.32 1.34 2.64 1 4 C0.67 2.68 0.34 1.36 0 0 Z M0 4 C0.33 4 0.66 4 1 4 C1.33 24.13 1.66 44.26 2 65 C1.01 65 0.02 65 -1 65 C-0.67 44.87 -0.34 24.74 0 4 Z " fill="#32312F" transform="translate(260,123)"/>
<path d="M0 0 C5.28 0 10.56 0 16 0 C16 1.65 16 3.3 16 5 C12.7 5 9.4 5 6 5 C6 5.99 6 6.98 6 8 C8.97 8 11.94 8 15 8 C15 9.32 15 10.64 15 12 C13.68 11.67 12.36 11.34 11 11 C11.33 10.34 11.66 9.68 12 9 C11.01 9.33 10.02 9.66 9 10 C6.8125 9.5625 6.8125 9.5625 5 9 C5 7.35 5 5.7 5 4 C7.64 4 10.28 4 13 4 C11.18806994 1.75675164 11.18806994 1.75675164 8.6171875 1.8046875 C7.71226562 1.82789063 6.80734375 1.85109375 5.875 1.875 C4.26625 1.91625 2.6575 1.9575 1 2 C1 5.3 1 8.6 1 12 C0.67 12 0.34 12 0 12 C0 8.04 0 4.08 0 0 Z " fill="#222222" transform="translate(317,253)"/>
<path d="M0 0 C1.98 0 3.96 0 6 0 C7.65 3.63 9.3 7.26 11 11 C12.98 7.37 14.96 3.74 17 0 C18.65 0 20.3 0 22 0 C21.33501617 4.38889325 19.81242323 7.9811485 18 12 C17.3125 10.375 17.3125 10.375 17 8 C18.4375 4.75 18.4375 4.75 20 2 C19.34 2 18.68 2 18 2 C18 2.66 18 3.32 18 4 C17.34 4 16.68 4 16 4 C15.81824219 4.63808594 15.63648438 5.27617187 15.44921875 5.93359375 C15.19785156 6.75988281 14.94648438 7.58617187 14.6875 8.4375 C14.44386719 9.26121094 14.20023437 10.08492188 13.94921875 10.93359375 C13.63597656 11.61550781 13.32273437 12.29742187 13 13 C12.01 13.33 11.02 13.66 10 14 C9.32645501 12.56570999 8.66140299 11.12742943 8 9.6875 C7.62875 8.88699219 7.2575 8.08648437 6.875 7.26171875 C6 5 6 5 6 2 C4.68 2 3.36 2 2 2 C1.67 2.99 1.34 3.98 1 5 C0.67 3.35 0.34 1.7 0 0 Z " fill="#232221" transform="translate(285,253)"/>
<path d="M0 0 C3.057704 3.70471223 5.10297121 7.83052366 7.265625 12.08984375 C7.66328064 12.87138321 8.06093628 13.65292267 8.47064209 14.45814514 C9.30663254 16.10691323 10.1402634 17.75687958 10.97167969 19.40795898 C12.24705242 21.93166733 13.54128397 24.44512505 14.8359375 26.95898438 C15.6470216 28.56450443 16.45695689 30.17060546 17.265625 31.77734375 C17.65510315 32.52644516 18.0445813 33.27554657 18.44586182 34.04734802 C21.06014334 39.32008289 21.06014334 39.32008289 20.73339844 43.01391602 C20.49137695 43.66932373 20.24935547 44.32473145 20 45 C19.87238281 44.41734375 19.74476563 43.8346875 19.61328125 43.234375 C19.01203166 41.04383509 18.2309448 39.2620609 17.1875 37.25 C16.83429688 36.5590625 16.48109375 35.868125 16.1171875 35.15625 C15.74851563 34.4446875 15.37984375 33.733125 15 33 C14.26702214 31.58530147 13.53772509 30.16868849 12.8125 28.75 C12.48894531 28.12609375 12.16539062 27.5021875 11.83203125 26.859375 C10.96762 24.92763906 10.45202447 23.06378849 10 21 C9.34 21 8.68 21 8 21 C6.9955866 18.7101766 5.99632388 16.4183401 5 14.125 C4.71382812 13.47402344 4.42765625 12.82304688 4.1328125 12.15234375 C2 7.2265625 2 7.2265625 2 5 C1.34 5 0.68 5 0 5 C0 3.35 0 1.7 0 0 Z " fill="#262524" transform="translate(185,62)"/>
<path d="M0 0 C1.125 4.75 1.125 4.75 0 7 C0.66 7 1.32 7 2 7 C2 7.66 2 8.32 2 9 C0.35 9.33 -1.3 9.66 -3 10 C-3.33 8.68 -3.66 7.36 -4 6 C-4.33 7.32 -4.66 8.64 -5 10 C-6.32 10 -7.64 10 -9 10 C-8.814375 9.071875 -8.62875 8.14375 -8.4375 7.1875 C-7.75876119 3.98656229 -7.75876119 3.98656229 -9 1 C-6.04335481 -0.4783226 -3.25770263 -0.06032783 0 0 Z " fill="#1F1F1E" transform="translate(300,300)"/>
<path d="M0 0 C0 2.97 0 5.94 0 9 C-3.40562852 9.77842938 -6.50765756 10.09978121 -10 10 C-9.51470588 3.56985294 -9.51470588 3.56985294 -7.25 1.0625 C-4.64597372 -0.16717908 -2.84687774 -0.23723981 0 0 Z M-6 3 C-6.33 4.32 -6.66 5.64 -7 7 C-6.01 6.34 -5.02 5.68 -4 5 C-4 4.34 -4 3.68 -4 3 C-4.66 3 -5.32 3 -6 3 Z " fill="#202020" transform="translate(121,300)"/>
<path d="M0 0 C-0.185625 0.928125 -0.37125 1.85625 -0.5625 2.8125 C-1.24123881 6.01343771 -1.24123881 6.01343771 0 9 C-3.43515002 9.62457273 -6.49064814 10 -10 10 C-9.51470588 3.56985294 -9.51470588 3.56985294 -7.25 1.0625 C-4.64597372 -0.16717908 -2.84687774 -0.23723981 0 0 Z M-6 3 C-6.33 4.32 -6.66 5.64 -7 7 C-6.01 6.34 -5.02 5.68 -4 5 C-4 4.34 -4 3.68 -4 3 C-4.66 3 -5.32 3 -6 3 Z " fill="#1E1E1E" transform="translate(256,300)"/>
<path d="M0 0 C-0.185625 0.928125 -0.37125 1.85625 -0.5625 2.8125 C-1.24123881 6.01343771 -1.24123881 6.01343771 0 9 C-3.43515002 9.62457273 -6.49064814 10 -10 10 C-9.51470588 3.56985294 -9.51470588 3.56985294 -7.25 1.0625 C-4.64597372 -0.16717908 -2.84687774 -0.23723981 0 0 Z M-6 3 C-6.33 4.32 -6.66 5.64 -7 7 C-6.01 6.34 -5.02 5.68 -4 5 C-4 4.34 -4 3.68 -4 3 C-4.66 3 -5.32 3 -6 3 Z " fill="#1E1E1E" transform="translate(201,300)"/>
<path d="M0 0 C0.66 0 1.32 0 2 0 C2 1.32 2 2.64 2 4 C5.3 4 8.6 4 12 4 C12 5.32 12 6.64 12 8 C6.72 8 1.44 8 -4 8 C-4 5.69 -4 3.38 -4 1 C-3.67 1 -3.34 1 -3 1 C-3 2.65 -3 4.3 -3 6 C-2.34 5.67 -1.68 5.34 -1 5 C-0.34444881 2.47266765 -0.34444881 2.47266765 0 0 Z " fill="#232222" transform="translate(321,265)"/>
<path d="M0 0 C1.4540625 0.0309375 1.4540625 0.0309375 2.9375 0.0625 C5.21428571 8.09821429 5.21428571 8.09821429 3.9375 12.0625 C3.256875 10.825 3.256875 10.825 2.5625 9.5625 C2.02625 8.7375 1.49 7.9125 0.9375 7.0625 C0.2775 7.0625 -0.3825 7.0625 -1.0625 7.0625 C-2.0525 8.5475 -2.0525 8.5475 -3.0625 10.0625 C-4.0525 9.7325 -5.0425 9.4025 -6.0625 9.0625 C-5.75431644 7.74897977 -5.44082335 6.43670428 -5.125 5.125 C-4.95097656 4.39410156 -4.77695312 3.66320312 -4.59765625 2.91015625 C-3.69960246 -0.19042363 -3.41295952 0.06965224 0 0 Z " fill="#2C2B2A" transform="translate(267.0625,252.9375)"/>
<path d="M0 0 C1.98 0 3.96 0 6 0 C6 0.99 6 1.98 6 3 C4.35 2.67 2.7 2.34 1 2 C1 2.66 1 3.32 1 4 C2.32 4.33 3.64 4.66 5 5 C4.01 6.98 3.02 8.96 2 11 C2.99 11.33 3.98 11.66 5 12 C5.33 11.34 5.66 10.68 6 10 C6 10.99 6 11.98 6 13 C4.02 13 2.04 13 0 13 C0 11.35 0 9.7 0 8 C-2.15377564 10.62198774 -3.40072174 12.64404172 -4 16 C-4.66 16 -5.32 16 -6 16 C-5.37183502 12.05050296 -4.1354471 8.80107972 -2.4375 5.1875 C-1.98246094 4.21167969 -1.52742188 3.23585938 -1.05859375 2.23046875 C-0.70925781 1.49441406 -0.35992187 0.75835937 0 0 Z " fill="#242323" transform="translate(40,253)"/>
<path d="M0 0 C-0.14133499 1.77119803 -0.28823208 3.54195287 -0.4375 5.3125 C-0.51871094 6.29863281 -0.59992188 7.28476562 -0.68359375 8.30078125 C-1 11 -1 11 -2 14 C-1.34 14.33 -0.68 14.66 0 15 C-0.66 15.66 -1.32 16.32 -2 17 C-4.125 16.625 -4.125 16.625 -6 16 C-5.84402344 15.16855469 -5.68804687 14.33710938 -5.52734375 13.48046875 C-5.33269531 12.39378906 -5.13804688 11.30710937 -4.9375 10.1875 C-4.74027344 9.10855469 -4.54304687 8.02960938 -4.33984375 6.91796875 C-3.78419925 3.94098219 -3.78419925 3.94098219 -5 1 C-2 0 -2 0 0 0 Z " fill="#252525" transform="translate(133,293)"/>
<path d="M0 0 C0.99 0.33 1.98 0.66 3 1 C3 6.61 3 12.22 3 18 C2.01 17.67 1.02 17.34 0 17 C-0.33 14.69 -0.66 12.38 -1 10 C-3.31 10 -5.62 10 -8 10 C-4.77208445 7.8480563 -3.71599191 7.79913557 0 8 C0 5.36 0 2.72 0 0 Z " fill="#353334" transform="translate(214,254)"/>
<path d="M0 0 C3.15702316 3.90869534 6 7.8614939 6 13 C3.64828869 12.40138258 1.3140622 11.73075648 -1 11 C-1.33 10.34 -1.66 9.68 -2 9 C-3.89533342 8.53476937 -3.89533342 8.53476937 -6.0625 8.375 C-7.361875 8.25125 -8.66125 8.1275 -10 8 C-10.33 8.66 -10.66 9.32 -11 10 C-11.33 9.01 -11.66 8.02 -12 7 C-8.04 7 -4.08 7 0 7 C1.33332095 4.3333581 0.67102033 2.83319697 0 0 Z " fill="#252524" transform="translate(49,261)"/>
<path d="M0 0 C1.1446875 0.3403125 1.1446875 0.3403125 2.3125 0.6875 C1.6525 2.0075 0.9925 3.3275 0.3125 4.6875 C-0.6775 4.6875 -1.6675 4.6875 -2.6875 4.6875 C-2.6875 5.6775 -2.6875 6.6675 -2.6875 7.6875 C-1.6975 7.3575 -0.7075 7.0275 0.3125 6.6875 C0.3125 7.6775 0.3125 8.6675 0.3125 9.6875 C-2.0625 9.8125 -2.0625 9.8125 -4.6875 9.6875 C-5.3475 9.0275 -6.0075 8.3675 -6.6875 7.6875 C-6.4737539 4.90880072 -5.9864626 3.13594389 -4.4375 0.8125 C-2.6875 -0.3125 -2.6875 -0.3125 0 0 Z " fill="#252525" transform="translate(156.6875,300.3125)"/>
<path d="M0 0 C0.33 0 0.66 0 1 0 C1 4.95 1 9.9 1 15 C-5 15 -5 15 -6.8984375 13.46875 C-7.62933594 12.49421875 -7.62933594 12.49421875 -8.375 11.5 C-9.12910156 10.52546875 -9.12910156 10.52546875 -9.8984375 9.53125 C-10.44371094 8.77328125 -10.44371094 8.77328125 -11 8 C-11.33 10.31 -11.66 12.62 -12 15 C-12.33 15 -12.66 15 -13 15 C-13 11.37 -13 7.74 -13 4 C-8.5 6.25 -8.5 6.25 -7 10 C-6.34 10 -5.68 10 -5 10 C-4.67 11.32 -4.34 12.64 -4 14 C-2.68 14 -1.36 14 0 14 C0 9.38 0 4.76 0 0 Z " fill="#1C1B1B" transform="translate(362,258)"/>
<path d="M0 0 C0 1.32 0 2.64 0 4 C-1.65 4.33 -3.3 4.66 -5 5 C-4.67 5.66 -4.34 6.32 -4 7 C-3.01 7 -2.02 7 -1 7 C-1.33 7.99 -1.66 8.98 -2 10 C-3.66611905 10.042721 -5.33382885 10.04063832 -7 10 C-8 9 -8 9 -8.3125 6.125 C-8 3 -8 3 -6.25 1.125 C-4 0 -4 0 0 0 Z " fill="#1B1B1B" transform="translate(285,300)"/>
<path d="M0 0 C0 1.32 0 2.64 0 4 C-2 5.75 -2 5.75 -4 7 C-3.01 7 -2.02 7 -1 7 C-1.33 7.99 -1.66 8.98 -2 10 C-3.66611905 10.042721 -5.33382885 10.04063832 -7 10 C-7.33 9.67 -7.66 9.34 -8 9 C-7.75 5.5625 -7.75 5.5625 -7 2 C-4 0 -4 0 0 0 Z " fill="#232222" transform="translate(228,300)"/>
<path d="M0 0 C1.1446875 0.3403125 1.1446875 0.3403125 2.3125 0.6875 C1.01950306 3.57187779 -0.34691363 5.55969421 -2.6875 7.6875 C-1.3675 7.3575 -0.0475 7.0275 1.3125 6.6875 C0.9825 7.6775 0.6525 8.6675 0.3125 9.6875 C-1.35361905 9.730221 -3.02132885 9.72813832 -4.6875 9.6875 C-5.6875 8.6875 -5.6875 8.6875 -5.9375 5.8125 C-5.6875 2.6875 -5.6875 2.6875 -4.5 0.75 C-2.6875 -0.3125 -2.6875 -0.3125 0 0 Z " fill="#1F1F1F" transform="translate(102.6875,300.3125)"/>
<path d="M0 0 C0.66 0 1.32 0 2 0 C2 0.66 2 1.32 2 2 C2.66 2 3.32 2 4 2 C4 2.66 4 3.32 4 4 C3.01 4 2.02 4 1 4 C1 5.65 1 7.3 1 9 C1.99 9 2.98 9 4 9 C4 9.66 4 10.32 4 11 C2.02 11.33 0.04 11.66 -2 12 C-3.04005702 8.61981469 -3.08004482 5.5219721 -3 2 C-2.01 2 -1.02 2 0 2 C0 1.34 0 0.68 0 0 Z " fill="#1C1C1C" transform="translate(311,298)"/>
<path d="M0 0 C0.66 0 1.32 0 2 0 C2 4.29 2 8.58 2 13 C2.99 13.33 3.98 13.66 5 14 C4.01 14.33 3.02 14.66 2 15 C1 12 0 9 -1 6 C-1.4125 6.928125 -1.825 7.85625 -2.25 8.8125 C-3.93441786 11.88054681 -5.08454083 13.19040465 -8 15 C-6.62992438 11.34426939 -4.98982135 8.04532353 -3 4.6875 C-2.484375 3.80449219 -1.96875 2.92148438 -1.4375 2.01171875 C-0.7259375 1.01591797 -0.7259375 1.01591797 0 0 Z " fill="#262524" transform="translate(207,141)"/>
<path d="M0 0 C0.99 0 1.98 0 3 0 C3.66 1.98 4.32 3.96 5 6 C3.02 5.34 1.04 4.68 -1 4 C-1.04125 4.78375 -1.0825 5.5675 -1.125 6.375 C-2.3725284 11.54333195 -5.13515646 15.56693935 -8 20 C-8.33 19.34 -8.66 18.68 -9 18 C-8.39501953 16.22827148 -8.39501953 16.22827148 -7.3828125 14.12109375 C-6.84333984 12.98704102 -6.84333984 12.98704102 -6.29296875 11.83007812 C-5.90753906 11.04052734 -5.52210938 10.25097656 -5.125 9.4375 C-4.74730469 8.64408203 -4.36960938 7.85066406 -3.98046875 7.03320312 C-1.16333128 1.16333128 -1.16333128 1.16333128 0 0 Z " fill="#272526" transform="translate(180,56)"/>
<path d="M0 0 C0.33 0.66 0.66 1.32 1 2 C1.66 2 2.32 2 3 2 C3 2.66 3 3.32 3 4 C2.01 4 1.02 4 0 4 C0 5.65 0 7.3 0 9 C0.99 9 1.98 9 3 9 C3 9.66 3 10.32 3 11 C1.02 11.33 -0.96 11.66 -3 12 C-4.04005702 8.61981469 -4.08004482 5.5219721 -4 2 C-2.68 1.34 -1.36 0.68 0 0 Z " fill="#1B1B1B" transform="translate(182,298)"/>
<path d="M0 0 C0.33 0.66 0.66 1.32 1 2 C1.99 2 2.98 2 4 2 C4 2.66 4 3.32 4 4 C2.68 4 1.36 4 0 4 C0 5.65 0 7.3 0 9 C0.99 9 1.98 9 3 9 C3 9.66 3 10.32 3 11 C1.02 11.33 -0.96 11.66 -3 12 C-4.25360525 8.23918426 -3.83902226 5.84551868 -3 2 C-2.01 1.34 -1.02 0.68 0 0 Z " fill="#1F1F1F" transform="translate(211,298)"/>
<path d="M0 0 C1.67542976 0.28604898 3.34385343 0.61781233 5 1 C5 1.66 5 2.32 5 3 C4.01 3.495 4.01 3.495 3 4 C3.33 5.65 3.66 7.3 4 9 C2.02 9.33 0.04 9.66 -2 10 C-2.33 9.01 -2.66 8.02 -3 7 C-1.68 6.67 -0.36 6.34 1 6 C0.01 5.67 -0.98 5.34 -2 5 C-1.125 1.125 -1.125 1.125 0 0 Z " fill="#252525" transform="translate(167,300)"/>
<path d="M0 0 C0.33 0.99 0.66 1.98 1 3 C0.01 3 -0.98 3 -2 3 C-2.66 5.31 -3.32 7.62 -4 10 C-4.99 10 -5.98 10 -7 10 C-6.67 7.69 -6.34 5.38 -6 3 C-6.66 3 -7.32 3 -8 3 C-8 2.34 -8 1.68 -8 1 C-5.29120665 -0.35439668 -2.99066732 -0.06501451 0 0 Z " fill="#1F1F1F" transform="translate(90,300)"/>
<path d="M0 0 C0.99 0.33 1.98 0.66 3 1 C3.99 3.97 4.98 6.94 6 10 C-2.91 10 -11.82 10 -21 10 C-21 9.67 -21 9.34 -21 9 C-13.08 8.67 -5.16 8.34 3 8 C2.01 6.02 1.02 4.04 0 2 C0 1.34 0 0.68 0 0 Z " fill="#242324" transform="translate(185,94)"/>
<path d="M0 0 C2.97 0.66 5.94 1.32 9 2 C9 2.99 9 3.98 9 5 C1.08 5 -6.84 5 -15 5 C-15 4.67 -15 4.34 -15 4 C-10.05 3.67 -5.1 3.34 0 3 C0 2.01 0 1.02 0 0 Z " fill="#20201F" transform="translate(263,192)"/>
<path d="M0 0 C2.33294775 -0.04241723 4.66702567 -0.04092937 7 0 C7.33 0.33 7.66 0.66 8 1 C10.85877909 1.23701239 13.69883297 1.42219182 16.5625 1.5625 C17.36880859 1.60568359 18.17511719 1.64886719 19.00585938 1.69335938 C21.00368805 1.79975262 23.0018207 1.90040888 25 2 C25 2.33 25 2.66 25 3 C16.42 3 7.84 3 -1 3 C-0.67 2.01 -0.34 1.02 0 0 Z " fill="#1E1D1D" transform="translate(184,194)"/>
<path d="M0 0 C2.0625 0.4375 2.0625 0.4375 4 1 C4.33 2.65 4.66 4.3 5 6 C4.01 6.33 3.02 6.66 2 7 C0.33289654 8.49985609 0.33289654 8.49985609 -1 10 C-1.02689216 8.52093108 -1.04634621 7.04172517 -1.0625 5.5625 C-1.07410156 4.73878906 -1.08570313 3.91507812 -1.09765625 3.06640625 C-1 1 -1 1 0 0 Z " fill="#363435" transform="translate(346,255)"/>
<path d="M0 0 C1.65 0 3.3 0 5 0 C3.68 0.33 2.36 0.66 1 1 C1 1.99 1 2.98 1 4 C3.97 4 6.94 4 10 4 C10 5.32 10 6.64 10 8 C7.69 8 5.38 8 3 8 C3.33 7.01 3.66 6.02 4 5 C2.68 5 1.36 5 0 5 C0 3.35 0 1.7 0 0 Z " fill="#252524" transform="translate(236,257)"/>
<path d="M0 0 C1.9375 0.375 1.9375 0.375 4 1 C4.33 1.66 4.66 2.32 5 3 C9.51617599 3.07654536 13.59085217 3.10228696 18 2 C16.36587557 3.70840281 15.13093906 4.93453047 13 6 C8.82841833 5.96778701 5.09840036 5.61617581 1.4375 3.5625 C0 2 0 2 0 0 Z " fill="#201E1D" transform="translate(94,268)"/>
<path d="M0 0 C0 1.32 0 2.64 0 4 C-3.63 4 -7.26 4 -11 4 C-6.98844558 -0.01155442 -5.52552982 -0.12012021 0 0 Z " fill="#292929" transform="translate(333,269)"/>
<path d="M0 0 C0.66 0.66 1.32 1.32 2 2 C1.67 2.99 1.34 3.98 1 5 C1.38932856 7.14255793 1.38932856 7.14255793 2 9 C1.01 9.495 1.01 9.495 0 10 C-0.66 9.67 -1.32 9.34 -2 9 C-2 8.34 -2 7.68 -2 7 C-2.66 7 -3.32 7 -4 7 C-5.625 5 -5.625 5 -7 3 C-6.67 2.34 -6.34 1.68 -6 1 C-4.68 2.32 -3.36 3.64 -2 5 C-1.34 3.35 -0.68 1.7 0 0 Z " fill="#3A3937" transform="translate(359,261)"/>
<path d="M0 0 C0.66 0 1.32 0 2 0 C1.51351425 2.18918589 0.95802693 4.08919278 0 6.125 C-1.46186484 10.32786142 -1.67398537 14.58164379 -2 19 C-2.66 18.67 -3.32 18.34 -4 18 C-4.02708567 16.39592672 -4.04643483 14.7917215 -4.0625 13.1875 C-4.07410156 12.29417969 -4.08570313 11.40085937 -4.09765625 10.48046875 C-4 8 -4 8 -3 5 C-2.34 5 -1.68 5 -1 5 C-0.67 3.35 -0.34 1.7 0 0 Z " fill="#323232" transform="translate(157,110)"/>
<path d="M0 0 C3 1 3 1 4.60546875 3.65234375 C5.12753906 4.73644531 5.64960938 5.82054688 6.1875 6.9375 C6.71730469 8.01902344 7.24710938 9.10054687 7.79296875 10.21484375 C9 13 9 13 9 15 C8.34 15 7.68 15 7 15 C5.82823482 12.87767021 4.66245215 10.75242209 3.5 8.625 C3.16613281 8.02171875 2.83226562 7.4184375 2.48828125 6.796875 C0 2.2265625 0 2.2265625 0 0 Z " fill="#2B2B2A" transform="translate(175,75)"/>
<path d="M0 0 C2.125 -0.4375 2.125 -0.4375 5 0 C7.276147 2.12689146 9.1458722 4.5023433 11 7 C10.67 7.66 10.34 8.32 10 9 C8.62437146 7.71034824 7.29233607 6.37310707 6 5 C6 4.34 6 3.68 6 3 C4.68 3 3.36 3 2 3 C1.34 4.32 0.68 5.64 0 7 C0 4.69 0 2.38 0 0 Z " fill="#1F1E1F" transform="translate(344,253)"/>
<path d="M0 0 C0.66 0.33 1.32 0.66 2 1 C1.525625 1.7425 1.05125 2.485 0.5625 3.25 C-0.77869327 5.61050015 -1.512312 7.36648477 -2 10 C-2.99 9.67 -3.98 9.34 -5 9 C-4.5206753 4.68607774 -3.2542015 2.83430453 0 0 Z " fill="#393535" transform="translate(99,255)"/>
<path d="M0 0 C0.33 0.99 0.66 1.98 1 3 C1.66 3.33 2.32 3.66 3 4 C3.33 3.01 3.66 2.02 4 1 C4.33 1.66 4.66 2.32 5 3 C4.06553465 5.03144641 3.06775224 7.03533587 2 9 C1.34 8.34 0.68 7.68 0 7 C-0.99 7.33 -1.98 7.66 -3 8 C-1.125 2.25 -1.125 2.25 0 0 Z " fill="#262324" transform="translate(170,77)"/>
<path d="M0 0 C0.2475 0.639375 0.495 1.27875 0.75 1.9375 C1.81562433 4.18741541 1.81562433 4.18741541 4.125 4.75 C4.74375 4.8325 5.3625 4.915 6 5 C5.67 5.99 5.34 6.98 5 8 C3.33388095 8.042721 1.66617115 8.04063832 0 8 C-0.33 7.67 -0.66 7.34 -1 7 C-0.71269945 4.66055264 -0.38063221 2.3260857 0 0 Z " fill="#1B1B1B" transform="translate(221,302)"/>
<path d="M0 0 C1.32 0.33 2.64 0.66 4 1 C3.34 1.66 2.68 2.32 2 3 C1.29289322 4.64991582 0.62056011 6.31562256 0 8 C-0.99 7.67 -1.98 7.34 -3 7 C-2.67 5.35 -2.34 3.7 -2 2 C-1.34 2 -0.68 2 0 2 C0 1.34 0 0.68 0 0 Z " fill="#343331" transform="translate(264,255)"/>
<path d="M0 0 C1.1875 1.625 1.1875 1.625 2 4 C0.625 7.25 0.625 7.25 -1 10 C-1.99 9.67 -2.98 9.34 -4 9 C-1.125 2.25 -1.125 2.25 0 0 Z " fill="#333132" transform="translate(174,71)"/>
<path d="M0 0 C1.1351555 3.4054665 0.84899821 4.31723087 -0.25 7.625 C-0.62898437 8.81996094 -0.62898437 8.81996094 -1.015625 10.0390625 C-2 12 -2 12 -5 13 C-4.54554036 11.58208592 -4.08625056 10.16571954 -3.625 8.75 C-3.24214844 7.56664063 -3.24214844 7.56664063 -2.8515625 6.359375 C-2.04826333 4.13372042 -1.10288338 2.09068328 0 0 Z " fill="#212121" transform="translate(154,112)"/>
<path d="M0 0 C1.485 0.99 1.485 0.99 3 2 C3 2.99 3 3.98 3 5 C3.99 4.67 4.98 4.34 6 4 C6 4.99 6 5.98 6 7 C3.625 7.125 3.625 7.125 1 7 C0.34 6.34 -0.32 5.68 -1 5 C-0.625 2.375 -0.625 2.375 0 0 Z " fill="#1B1B1B" transform="translate(151,303)"/>
<path d="M0 0 C0.33 1.32 0.66 2.64 1 4 C4.3 4 7.6 4 11 4 C11 5.32 11 6.64 11 8 C9 7.33333333 7 6.66666667 5 6 C3.33637583 5.65179959 1.67004829 5.31595508 0 5 C0 3.35 0 1.7 0 0 Z " fill="#232221" transform="translate(236,265)"/>
<path d="M0 0 C3.15702316 3.90869534 6 7.8614939 6 13 C5.01 12.67 4.02 12.34 3 12 C3 10.35 3 8.7 3 7 C2.34 6.67 1.68 6.34 1 6 C0.375 2.9375 0.375 2.9375 0 0 Z " fill="#1A1A1A" transform="translate(49,261)"/>
<path d="M0 0 C1.52519276 0.08937803 3.04681929 0.24537146 4.5625 0.4375 C5.80193359 0.59025391 5.80193359 0.59025391 7.06640625 0.74609375 C7.70449219 0.82988281 8.34257812 0.91367188 9 1 C9 1.33 9 1.66 9 2 C6.36 2 3.72 2 1 2 C1 3.65 1 5.3 1 7 C0.34 6.67 -0.32 6.34 -1 6 C-1.042721 4.33388095 -1.04063832 2.66617115 -1 1 C-0.67 0.67 -0.34 0.34 0 0 Z " fill="#292928" transform="translate(208,157)"/>
<path d="M0 0 C2.31966166 2.84685749 3.91581154 5.4763875 5 9 C4.67 9.99 4.34 10.98 4 12 C2.35 11.67 0.7 11.34 -1 11 C-0.67 10.34 -0.34 9.68 0 9 C0.66 9 1.32 9 2 9 C1.34 6.03 0.68 3.06 0 0 Z " fill="#1B1A1B" transform="translate(273,262)"/>
<path d="M0 0 C6.27 0 12.54 0 19 0 C19 0.99 19 1.98 19 3 C13.06 2.67 7.12 2.34 1 2 C0.67 1.34 0.34 0.68 0 0 Z " fill="#2A2A28" transform="translate(191,194)"/>
<path d="M0 0 C0.66 0.33 1.32 0.66 2 1 C1.67 1.99 1.34 2.98 1 4 C0.34 4 -0.32 4 -1 4 C-1 5.65 -1 7.3 -1 9 C-1.99 9.33 -2.98 9.66 -4 10 C-3.43454163 6.04179141 -2.19097652 3.3340947 0 0 Z " fill="#343233" transform="translate(166,90)"/>
<path d="M0 0 C0.33 0 0.66 0 1 0 C1.20086443 3.71599191 1.1519437 4.77208445 -1 8 C-0.01 8.66 0.98 9.32 2 10 C0.35 10.33 -1.3 10.66 -3 11 C-3.33 10.34 -3.66 9.68 -4 9 C-3.22265625 6.8359375 -3.22265625 6.8359375 -2.0625 4.375 C-1.68222656 3.55773437 -1.30195313 2.74046875 -0.91015625 1.8984375 C-0.60980469 1.27195312 -0.30945313 0.64546875 0 0 Z " fill="#1C1B1A" transform="translate(259,263)"/>
<path d="M0 0 C1.32 0.66 2.64 1.32 4 2 C3.67 3.32 3.34 4.64 3 6 C2.01 5.34 1.02 4.68 0 4 C-0.99 3.67 -1.98 3.34 -3 3 C-2.01 2.01 -1.02 1.02 0 0 Z " fill="#373635" transform="translate(43,254)"/>
<path d="M0 0 C0.75 1.75 0.75 1.75 1 4 C-0.8125 6.25 -0.8125 6.25 -3 8 C-3.66 8 -4.32 8 -5 8 C-5 8.66 -5 9.32 -5 10 C-5.99 9.67 -6.98 9.34 -8 9 C-6.8553125 8.1646875 -6.8553125 8.1646875 -5.6875 7.3125 C-3.03859112 5.03320631 -1.61711178 3.06400128 0 0 Z " fill="#232222" transform="translate(148,125)"/>
<path d="M0 0 C0.625 1.8125 0.625 1.8125 1 4 C0.01 5.485 0.01 5.485 -1 7 C-1.99 7 -2.98 7 -4 7 C-3.6875 4.625 -3.6875 4.625 -3 2 C-2.01 1.34 -1.02 0.68 0 0 Z " fill="#212121" transform="translate(220,102)"/>
<path d="M0 0 C0.33 0.66 0.66 1.32 1 2 C1.66 2 2.32 2 3 2 C3 2.66 3 3.32 3 4 C2.01 4.33 1.02 4.66 0 5 C-0.99 6.485 -0.99 6.485 -2 8 C-2.66 6.02 -3.32 4.04 -4 2 C-2.68 1.34 -1.36 0.68 0 0 Z " fill="#232323" transform="translate(182,298)"/>
<path d="M0 0 C0.33 0.66 0.66 1.32 1 2 C1.99 2 2.98 2 4 2 C4 2.66 4 3.32 4 4 C2.02 4.33 0.04 4.66 -2 5 C-2.33 3.68 -2.66 2.36 -3 1 C-2.01 1.495 -2.01 1.495 -1 2 C-0.67 1.34 -0.34 0.68 0 0 Z " fill="#141414" transform="translate(311,305)"/>
<path d="M0 0 C0.66 0 1.32 0 2 0 C0.375 5.75 0.375 5.75 -3 8 C-2.67 6.02 -2.34 4.04 -2 2 C-1.34 2 -0.68 2 0 2 C0 1.34 0 0.68 0 0 Z " fill="#363633" transform="translate(303,255)"/>
<path d="M0 0 C0.33 1.32 0.66 2.64 1 4 C-0.98 4.33 -2.96 4.66 -5 5 C-5.33 4.01 -5.66 3.02 -6 2 C-4.7934375 1.7834375 -4.7934375 1.7834375 -3.5625 1.5625 C-1.07896294 1.25864751 -1.07896294 1.25864751 0 0 Z " fill="#1B1B1B" transform="translate(170,305)"/>
<path d="M0 0 C0.66 0.33 1.32 0.66 2 1 C1.34 2.32 0.68 3.64 0 5 C0.99 5.33 1.98 5.66 3 6 C3.33 5.34 3.66 4.68 4 4 C4 4.99 4 5.98 4 7 C2.02 7 0.04 7 -2 7 C-2.125 4.625 -2.125 4.625 -2 2 C-1.34 1.34 -0.68 0.68 0 0 Z " fill="#1E1D1D" transform="translate(42,259)"/>
<path d="M0 0 C2.375 0.1875 2.375 0.1875 5 1 C6.3125 3.5625 6.3125 3.5625 7 6 C5.1875 5.8125 5.1875 5.8125 3 5 C1.25 2.4375 1.25 2.4375 0 0 Z " fill="#383635" transform="translate(106,255)"/>
<path d="M0 0 C0.98120464 3.05263664 0.98120464 4.94736336 0 8 C-1.32 7.67 -2.64 7.34 -4 7 C-2.68 4.69 -1.36 2.38 0 0 Z " fill="#353432" transform="translate(261,264)"/>
<path d="M0 0 C3 1 3 1 4.1875 2.875 C5 5 5 5 5 8 C4.34 8 3.68 8 3 8 C0 2.25 0 2.25 0 0 Z " fill="#2B2B2A" transform="translate(185,94)"/>
<path d="M0 0 C0.33 0.66 0.66 1.32 1 2 C1.99 2.33 2.98 2.66 4 3 C3.34 3.66 2.68 4.32 2 5 C-0.125 4.625 -0.125 4.625 -2 4 C-1.34 2.68 -0.68 1.36 0 0 Z " fill="#1E1E1E" transform="translate(129,305)"/>
<path d="M0 0 C0.66 0.33 1.32 0.66 2 1 C-0.475 4.465 -0.475 4.465 -3 8 C-3.33 7.01 -3.66 6.02 -4 5 C-2.0625 2.3125 -2.0625 2.3125 0 0 Z " fill="#201F1F" transform="translate(202,108)"/>
</svg>
