<?xml version="1.0" encoding="UTF-8"?>
<svg version="1.1" xmlns="http://www.w3.org/2000/svg" width="407" height="386">
<path d="M0 0 C134.31 0 268.62 0 407 0 C407 127.38 407 254.76 407 386 C272.69 386 138.38 386 0 386 C0 258.62 0 131.24 0 0 Z " fill="#FEFEFE" transform="translate(0,0)"/>
<path d="M0 0 C11.55 0 23.1 0 35 0 C35 0.66 35 1.32 35 2 C33.329375 2.185625 33.329375 2.185625 31.625 2.375 C27.96896323 2.6465813 27.96896323 2.6465813 26 5 C25.69219658 7.93380492 25.69219658 7.93380492 25.74121094 11.42163086 C25.7377063 12.08034683 25.73420166 12.73906281 25.73059082 13.41773987 C25.72177197 15.60021433 25.72762367 17.78236586 25.734375 19.96484375 C25.73302823 21.47937584 25.73108759 22.99390751 25.72857666 24.50843811 C25.72562506 27.68527333 25.72992351 30.86199619 25.73925781 34.03881836 C25.75064273 38.11228111 25.74409932 42.18548004 25.73211288 46.25893307 C25.72488691 49.38759856 25.72718576 52.51620148 25.73236847 55.64486885 C25.73370343 57.14678542 25.7320626 58.64870765 25.72740936 60.1506176 C25.72233302 62.25022298 25.73006998 64.34940106 25.74121094 66.44897461 C25.74280212 67.64429306 25.74439331 68.83961151 25.74603271 70.07115173 C25.78012465 73.19099641 25.78012465 73.19099641 28 76 C31.56769552 76.73606499 31.56769552 76.73606499 35 77 C35 77.33 35 77.66 35 78 C23.78 78 12.56 78 1 78 C1 77.67 1 77.34 1 77 C1.84884766 76.81824219 1.84884766 76.81824219 2.71484375 76.6328125 C3.44832031 76.46523437 4.18179688 76.29765625 4.9375 76.125 C5.66839844 75.96257812 6.39929688 75.80015625 7.15234375 75.6328125 C9.20700294 75.17038477 9.20700294 75.17038477 10 73 C10.156251 70.52190743 10.25820819 68.06668307 10.31640625 65.5859375 C10.33505737 64.93923096 10.3537085 64.29252441 10.3729248 63.6262207 C10.44124853 61.20928676 10.50138067 58.79212686 10.5625 56.375 C10.706875 50.97125 10.85125 45.5675 11 40 C-2.2 40 -15.4 40 -29 40 C-28.87625 45.56875 -28.7525 51.1375 -28.625 56.875 C-28.59100098 58.63183105 -28.55700195 60.38866211 -28.52197266 62.19873047 C-28.48677333 63.58823588 -28.45085281 64.9777233 -28.4140625 66.3671875 C-28.39702271 67.45302124 -28.39702271 67.45302124 -28.37963867 68.56079102 C-28.38496327 72.73634401 -28.38496327 72.73634401 -26 76 C-23.67724823 76.40047444 -21.34260643 76.7397104 -19 77 C-19 77.33 -19 77.66 -19 78 C-30.22 78 -41.44 78 -53 78 C-53 77.67 -53 77.34 -53 77 C-52.43410156 76.86722656 -51.86820313 76.73445313 -51.28515625 76.59765625 C-50.18494141 76.33275391 -50.18494141 76.33275391 -49.0625 76.0625 C-48.33160156 75.88847656 -47.60070312 75.71445313 -46.84765625 75.53515625 C-45.00030102 75.16112431 -45.00030102 75.16112431 -44 74 C-43.9637687 72.0406645 -43.98742918 70.08018293 -44.03515625 68.12109375 C-44.17583104 50.73574896 -42.98278862 39.31834454 -30.67578125 26.59765625 C-30.12277344 26.07042969 -29.56976563 25.54320312 -29 25 C-29 28.63 -29 32.26 -29 36 C-15.8 36 -2.6 36 11 36 C10.67 25.77 10.34 15.54 10 5 C6.39338934 3.19669467 3.91606575 2.53400897 0 2 C0 1.34 0 0.68 0 0 Z " fill="#454342" transform="translate(237,118)"/>
<path d="M0 0 C0.99 0 1.98 0 3 0 C6.17398666 6.14502962 9.32274653 12.30250072 12.4543457 18.46923828 C13.52247605 20.56528396 14.59633452 22.65842092 15.67602539 24.74853516 C17.22759201 27.75456159 18.75821285 30.7704695 20.28515625 33.7890625 C20.77154068 34.72054108 21.25792511 35.65201965 21.75904846 36.61172485 C25.03175218 43.15264334 25.03175218 43.15264334 24.86914062 47.4921875 C23.97816116 50.06301364 22.95443381 52.11904716 21.4375 54.375 C20.98246094 55.06335938 20.52742188 55.75171875 20.05859375 56.4609375 C19.70925781 56.96882813 19.35992187 57.47671875 19 58 C17.1875 57.875 17.1875 57.875 15 57 C14.01 55.02 13.02 53.04 12 51 C1.77 50.67 -8.46 50.34 -19 50 C-19.66 51.98 -20.32 53.96 -21 56 C-21.53579435 57.31490815 -22.07673028 58.62774455 -22.625 59.9375 C-24.05009906 63.76699697 -24.54322442 66.88701514 -24 71 C-22.59121904 73.9901643 -22.59121904 73.9901643 -20 76 C-16.35817665 76.89055736 -16.35817665 76.89055736 -13 77 C-13 77.66 -13 78.32 -13 79 C-22.9 79 -32.8 79 -43 79 C-43 78.34 -43 77.68 -43 77 C-41.30729167 76.38151042 -39.61458333 75.76302083 -37.921875 75.14453125 C-32.56769549 71.955965 -30.27161748 65.85961705 -27.75 60.4375 C-27.12786621 59.11794312 -27.12786621 59.11794312 -26.49316406 57.77172852 C-21.39339152 46.85781487 -16.55195794 35.82290374 -11.70996094 24.79272461 C-8.0205881 16.40802772 -4.20814782 8.14069158 0 0 Z " fill="#403E3D" transform="translate(180,57)"/>
<path d="M0 0 C0.33 0 0.66 0 1 0 C1 3.96 1 7.92 1 12 C14.2 12 27.4 12 41 12 C40.67 12.66 40.34 13.32 40 14 C27.46 14.33 14.92 14.66 2 15 C1.938125 23.353125 1.938125 23.353125 1.875 31.875 C1.85679199 33.63183105 1.83858398 35.38866211 1.81982422 37.19873047 C1.81398407 38.58821303 1.80888738 39.97769901 1.8046875 41.3671875 C1.7893396 42.45302124 1.7893396 42.45302124 1.77368164 43.56079102 C1.77304604 45.37542936 1.87722425 47.18951973 2 49 C4.76223278 51.76223278 7.20706617 51.57856291 11 52 C11 52.33 11 52.66 11 53 C-0.22 53 -11.44 53 -23 53 C-23 52.67 -23 52.34 -23 52 C-22.15115234 51.80083984 -22.15115234 51.80083984 -21.28515625 51.59765625 C-20.55167969 51.42105469 -19.81820312 51.24445313 -19.0625 51.0625 C-18.33160156 50.88847656 -17.60070312 50.71445313 -16.84765625 50.53515625 C-15.00030102 50.16112431 -15.00030102 50.16112431 -14 49 C-13.9637687 47.0406645 -13.98742918 45.08018293 -14.03515625 43.12109375 C-14.16272241 27.22655913 -13.46340317 16.28530564 -3 4 C-2.41992188 3.20722656 -1.83984375 2.41445312 -1.2421875 1.59765625 C-0.83226562 1.07042969 -0.42234375 0.54320312 0 0 Z " fill="#3F3D3C" transform="translate(207,143)"/>
<path d="M0 0 C3.05127555 2.80720616 4.95980283 5.42434922 6.796875 9.1328125 C7.28027344 10.10347656 7.76367188 11.07414062 8.26171875 12.07421875 C8.75285156 13.08097656 9.24398437 14.08773437 9.75 15.125 C10.25660156 16.13949219 10.76320312 17.15398437 11.28515625 18.19921875 C15 25.71902375 15 25.71902375 15 28 C6.09 28 -2.82 28 -12 28 C-8.625 17.875 -8.625 17.875 -6.73828125 13.96484375 C-6.34189453 13.13662109 -5.94550781 12.30839844 -5.53710938 11.45507812 C-5.13298828 10.62427734 -4.72886719 9.79347656 -4.3125 8.9375 C-3.89677734 8.07189453 -3.48105469 7.20628906 -3.05273438 6.31445312 C-2.03989913 4.20729015 -1.0222841 2.1025906 0 0 Z " fill="#F2F2F2" transform="translate(175,76)"/>
<path d="M0 0 C12.05357143 -0.53571429 12.05357143 -0.53571429 15.625 1.8125 C18.39589464 4.3646398 19.85202195 6.04871256 20.4375 9.8125 C19.82341992 14.28651198 18.17852585 15.82147415 15 19 C10.09931037 20.63356321 5.14261524 20.05529694 0 20 C0 13.4 0 6.8 0 0 Z " fill="#504F4E" transform="translate(126,253)"/>
<path d="M0 0 C5.53846154 3.07692308 5.53846154 3.07692308 7 6 C7.5811138 13.08958838 7.5811138 13.08958838 5.125 16.9375 C1.63841797 20.3215355 -1.03592714 20.38966392 -5.73828125 20.359375 C-9.32520929 19.78943134 -10.86838894 17.79773951 -13 15 C-14.6167707 11.76645861 -14.47631929 9.57239465 -14 6 C-10.31856593 0.98582125 -6.245465 -1.13553909 0 0 Z " fill="#4D4B4A" transform="translate(107,253)"/>
<path d="M0 0 C0.66 0 1.32 0 2 0 C0.39288858 4.87805584 -2.39600465 8.63596972 -5.375 12.75 C-6.46628159 14.27594459 -7.55742356 15.80198903 -8.6484375 17.328125 C-9.2062793 18.10478516 -9.76412109 18.88144531 -10.33886719 19.68164062 C-12.91259728 23.27366605 -15.45560037 26.887171 -18 30.5 C-19.00242491 31.92069941 -20.00502949 33.34127207 -21.0078125 34.76171875 C-21.50313477 35.46345215 -21.99845703 36.16518555 -22.50878906 36.88818359 C-23.98172821 38.97412394 -25.45558181 41.05941515 -26.9296875 43.14453125 C-32.30505144 50.75009937 -37.66255014 58.36776805 -43 66 C-47.84325706 72.925566 -52.6903287 79.84833767 -57.58178711 86.73999023 C-60.18997918 90.41722121 -62.76703022 94.11226866 -65.30859375 97.8359375 C-65.85306152 98.62653564 -66.3975293 99.41713379 -66.95849609 100.23168945 C-68.00739139 101.75586044 -69.04843925 103.28546944 -70.08056641 104.82104492 C-71.31210423 106.60159935 -72.64781718 108.30924245 -74 110 C-74.99 110 -75.98 110 -77 110 C-71.59284444 101.1848133 -65.66605352 92.78665349 -59.67529297 84.36376953 C-56.76406486 80.25614631 -53.88336727 76.12720389 -51 72 C-46.1978249 65.13159739 -41.37713287 58.27674676 -36.5390625 51.43359375 C-32.67663477 45.96693017 -28.8357853 40.48538259 -25 35 C-20.50740654 28.5781175 -16.01204022 22.1582394 -11.5 15.75 C-10.79810547 14.75033203 -10.79810547 14.75033203 -10.08203125 13.73046875 C-8.73052106 11.81357035 -7.36780766 9.90529828 -6 8 C-5.47019531 7.25427734 -4.94039063 6.50855469 -4.39453125 5.74023438 C-3.59595703 4.63905273 -3.59595703 4.63905273 -2.78125 3.515625 C-2.05518555 2.50677246 -2.05518555 2.50677246 -1.31445312 1.47753906 C-0.88068359 0.98995117 -0.44691406 0.50236328 0 0 Z " fill="#4C4A49" transform="translate(237,77)"/>
<path d="M0 0 C10.7421875 -0.1953125 10.7421875 -0.1953125 14 0 C16 2 16 2 16.0625 5.1875 C16.041875 6.445625 16.02125 7.70375 16 9 C16.29692012 11.33824592 16.62020847 13.67377689 17 16 C14.51565563 18.34290892 13.22268407 18.97982934 9.765625 19.29296875 C8.60546875 19.25816406 7.4453125 19.22335937 6.25 19.1875 C4.1875 19.125625 2.125 19.06375 0 19 C0 12.73 0 6.46 0 0 Z " fill="#4A4847" transform="translate(65,254)"/>
<path d="M0 0 C5.58879398 1.1177588 6.08027185 1.73460129 9.3125 6.0625 C10.00988281 6.98160156 10.70726562 7.90070313 11.42578125 8.84765625 C11.94527344 9.55792969 12.46476562 10.26820313 13 11 C13.33 7.7 13.66 4.4 14 1 C15.32 1 16.64 1 18 1 C18 7.27 18 13.54 18 20 C12.34836472 18.86967294 12.34836472 18.86967294 9.6875 15.5625 C9.17574219 14.94503906 8.66398437 14.32757813 8.13671875 13.69140625 C7 12 7 12 7 10 C6.34 10 5.68 10 5 10 C5 13.3 5 16.6 5 20 C3.35 20 1.7 20 0 20 C0 13.4 0 6.8 0 0 Z " fill="#4F4D4C" transform="translate(344,253)"/>
<path d="M0 0 C4.95 0 9.9 0 15 0 C15 1.32 15 2.64 15 4 C11.7 4 8.4 4 5 4 C5 5.32 5 6.64 5 8 C7.97 8 10.94 8 14 8 C14 9.32 14 10.64 14 12 C11.03 12 8.06 12 5 12 C5 13.32 5 14.64 5 16 C8.63 16 12.26 16 16 16 C16 17.32 16 18.64 16 20 C10.72 20 5.44 20 0 20 C0 13.4 0 6.8 0 0 Z " fill="#5B5958" transform="translate(317,253)"/>
<path d="M0 0 C4.95 0 9.9 0 15 0 C15 1.32 15 2.64 15 4 C11.7 4 8.4 4 5 4 C5 5.32 5 6.64 5 8 C7.97 8 10.94 8 14 8 C14 9.32 14 10.64 14 12 C11.03 12 8.06 12 5 12 C5 13.32 5 14.64 5 16 C8.63 16 12.26 16 16 16 C16 17.32 16 18.64 16 20 C10.72 20 5.44 20 0 20 C0 13.4 0 6.8 0 0 Z " fill="#5D5B5B" transform="translate(157,253)"/>
<path d="M0 0 C1.98 0 3.96 0 6 0 C7.1734316 2.60130627 8.33892508 5.20568508 9.5 7.8125 C9.83386719 8.55048828 10.16773438 9.28847656 10.51171875 10.04882812 C10.82753906 10.76103516 11.14335937 11.47324219 11.46875 12.20703125 C11.90864258 13.18893433 11.90864258 13.18893433 12.35742188 14.19067383 C13 16 13 16 13 19 C11.68 19 10.36 19 9 19 C8.67 17.68 8.34 16.36 8 15 C4.7 15.33 1.4 15.66 -2 16 C-2.33 16.99 -2.66 17.98 -3 19 C-4.65 19 -6.3 19 -8 19 C-6.60121198 14.53202662 -4.86369228 10.36177921 -2.875 6.125 C-2.33617187 4.97257812 -1.79734375 3.82015625 -1.2421875 2.6328125 C-0.62730469 1.32957031 -0.62730469 1.32957031 0 0 Z " fill="#4C4A49" transform="translate(264,254)"/>
<path d="M0 0 C1.65 0 3.3 0 5 0 C6.15026086 2.41464681 7.29532205 4.83153318 8.4375 7.25 C8.92573242 8.27287109 8.92573242 8.27287109 9.42382812 9.31640625 C9.73642578 9.98027344 10.04902344 10.64414062 10.37109375 11.328125 C10.65911865 11.9355957 10.94714355 12.54306641 11.24389648 13.16894531 C12.03670459 15.08888746 12.54475403 16.9758162 13 19 C11.35 19 9.7 19 8 19 C7.67 18.01 7.34 17.02 7 16 C3.7 15.67 0.4 15.34 -3 15 C-3.33 16.32 -3.66 17.64 -4 19 C-5.32 19 -6.64 19 -8 19 C-7.38188466 14.44684052 -5.53234107 10.71540233 -3.4375 6.6875 C-2.9434668 5.71973633 -2.9434668 5.71973633 -2.43945312 4.73242188 C-1.63175745 3.15214772 -0.81662387 1.57567895 0 0 Z " fill="#474544" transform="translate(41,254)"/>
<path d="M0 0 C1.65 0 3.3 0 5 0 C5 6.6 5 13.2 5 20 C3.35 20 1.7 20 0 20 C0 17.36 0 14.72 0 12 C-2.97 12 -5.94 12 -9 12 C-9 14.64 -9 17.28 -9 20 C-10.32 20 -11.64 20 -13 20 C-13 13.73 -13 7.46 -13 1 C-11.68 1 -10.36 1 -9 1 C-9 3.31 -9 5.62 -9 8 C-6.03 8 -3.06 8 0 8 C0 5.36 0 2.72 0 0 Z " fill="#403E3D" transform="translate(214,253)"/>
<path d="M0 0 C4.95 0 9.9 0 15 0 C15 0.99 15 1.98 15 3 C11.7 3 8.4 3 5 3 C5 4.32 5 5.64 5 7 C7.97 7 10.94 7 14 7 C14 8.32 14 9.64 14 11 C11.03 11 8.06 11 5 11 C5 12.32 5 13.64 5 15 C8.63 15 12.26 15 16 15 C16 16.32 16 17.64 16 19 C10.72 19 5.44 19 0 19 C0 12.73 0 6.46 0 0 Z " fill="#535150" transform="translate(231,254)"/>
<path d="M0 0 C2.20291604 2.20291604 2.36100608 2.98914538 2.9375 5.9375 C3.49234702 8.25776934 3.93519068 9.89425848 5.1875 11.9375 C7.98026252 13.57463665 10.81982841 13.69998381 14 14 C14 14.66 14 15.32 14 16 C4.1 16 -5.8 16 -16 16 C-16 15.34 -16 14.68 -16 14 C-14.9275 13.608125 -13.855 13.21625 -12.75 12.8125 C-7.69595174 10.64793792 -5.19648023 6.94208052 -3 2 C-2.01 2 -1.02 2 0 2 C0 1.34 0 0.68 0 0 Z " fill="#403E3D" transform="translate(153,120)"/>
<path d="M0 0 C1.65 0 3.3 0 5 0 C6.65 3.63 8.3 7.26 10 11 C11.98 7.37 13.96 3.74 16 0 C17.32 0 18.64 0 20 0 C17.94235079 6.45353615 15.57616518 12.7361263 13 19 C11.35 19 9.7 19 8 19 C6.84973914 16.58535319 5.70467795 14.16846682 4.5625 11.75 C4.23701172 11.06808594 3.91152344 10.38617188 3.57617188 9.68359375 C3.26357422 9.01972656 2.95097656 8.35585938 2.62890625 7.671875 C2.1968689 6.76066895 2.1968689 6.76066895 1.75610352 5.83105469 C0.96329541 3.91111254 0.45524597 2.0241838 0 0 Z " fill="#4A4948" transform="translate(286,254)"/>
<path d="M0 0 C3.63 0 7.26 0 11 0 C10.67 0.66 10.34 1.32 10 2 C8.02 2 6.04 2 4 2 C4 3.65 4 5.3 4 7 C6.64 7 9.28 7 12 7 C11.67 7.99 11.34 8.98 11 10 C8.69 10 6.38 10 4 10 C4 11.98 4 13.96 4 16 C5.62490954 16.02698189 7.24994633 16.04638757 8.875 16.0625 C9.77992187 16.07410156 10.68484375 16.08570313 11.6171875 16.09765625 C14.0168585 16.16249257 14.0168585 16.16249257 16 15 C15 18 15 18 13 19 C8.66396021 19.1393329 4.33919329 19.04254111 0 19 C0 12.73 0 6.46 0 0 Z " fill="#3F3D3C" transform="translate(65,254)"/>
<path d="M0 0 C3.4375 0.75 3.4375 0.75 5.4375 2.75 C5.7642107 5.82108055 5.91888276 7.90050101 4.375 10.625 C1.37017901 12.36973477 -1.17060131 12.05835443 -4.5625 11.75 C-6.88778287 9.42471713 -6.85761025 8.90334102 -6.875 5.75 C-6.89175781 5.04875 -6.90851563 4.3475 -6.92578125 3.625 C-6.80589844 3.00625 -6.68601562 2.3875 -6.5625 1.75 C-3.5625 -0.25 -3.5625 -0.25 0 0 Z " fill="#F5F5F5" transform="translate(104.5625,257.25)"/>
<path d="M0 0 C6 0 6 0 8.375 1.125 C10 3 10 3 10.4375 6 C10 9 10 9 8.9375 10.875 C5.99772876 12.58196395 3.32129197 12.18799766 0 12 C0 8.04 0 4.08 0 0 Z " fill="#F9F9F9" transform="translate(131,257)"/>
<path d="M0 0 C1.32 0 2.64 0 4 0 C4 6.27 4 12.54 4 19 C-1 18 -1 18 -3.3125 15.8125 C-5.25629673 12.57283878 -5.34530062 10.71198163 -5 7 C-3.68 7.99 -2.36 8.98 -1 10 C-0.67 6.7 -0.34 3.4 0 0 Z " fill="#403E3D" transform="translate(358,254)"/>
<path d="M0 0 C1.875 0.3125 1.875 0.3125 4 1 C6.45665197 4.68497796 6.70086491 7.71971786 6 12 C4.20636089 14.8100346 2.98119065 16.50940468 0 18 C-1.54023996 18.06950541 -3.08334988 18.08452357 -4.625 18.0625 C-5.85089844 18.04896484 -5.85089844 18.04896484 -7.1015625 18.03515625 C-7.72804688 18.02355469 -8.35453125 18.01195312 -9 18 C-9 17.34 -9 16.68 -9 16 C-8.16855469 15.70996094 -8.16855469 15.70996094 -7.3203125 15.4140625 C-6.59585938 15.15367187 -5.87140625 14.89328125 -5.125 14.625 C-4.40570313 14.36976563 -3.68640625 14.11453125 -2.9453125 13.8515625 C-0.81842006 13.06122217 -0.81842006 13.06122217 1 11 C1.25563551 7.16546731 0.87816497 3.73220113 0 0 Z " fill="#454342" transform="translate(108,255)"/>
<path d="M0 0 C1.32 0 2.64 0 4 0 C4 2.64 4 5.28 4 8 C6.97 8 9.94 8 13 8 C13 8.66 13 9.32 13 10 C10.03 10 7.06 10 4 10 C4 12.97 4 15.94 4 19 C2.68 19 1.36 19 0 19 C0 12.73 0 6.46 0 0 Z " fill="#3C3A39" transform="translate(201,254)"/>
<path d="M0 0 C0.66 0 1.32 0 2 0 C2 0.66 2 1.32 2 2 C2.66 2.33 3.32 2.66 4 3 C4 2.01 4 1.02 4 0 C4.66 0 5.32 0 6 0 C7.4606285 2.64738916 8 3.89448334 8 7 C6.02 7.33 4.04 7.66 2 8 C4.64 8.33 7.28 8.66 10 9 C10 9.33 10 9.66 10 10 C6.7 10 3.4 10 0 10 C-0.33 11.32 -0.66 12.64 -1 14 C-2.32 14 -3.64 14 -5 14 C-4.34580901 8.93001981 -2.1453591 4.58009223 0 0 Z " fill="#52504F" transform="translate(38,259)"/>
<path d="M0 0 C0.33 0.66 0.66 1.32 1 2 C1.66 2 2.32 2 3 2 C1.36368504 7.3223297 -0.83880041 12.30981576 -3.125 17.375 C-3.49753906 18.20644531 -3.87007812 19.03789063 -4.25390625 19.89453125 C-5.16673546 21.93084255 -6.08215598 23.96594539 -7 26 C-7.99 25.34 -8.98 24.68 -10 24 C-7.49415892 15.59806226 -3.78974143 7.88058561 0 0 Z " fill="#484645" transform="translate(171,76)"/>
<path d="M0 0 C1.98 0 3.96 0 6 0 C8.21538462 6.4 8.21538462 6.4 7.125 9.4375 C6.75375 9.953125 6.3825 10.46875 6 11 C4.68 9.35 3.36 7.7 2 6 C1.34 6.99 0.68 7.98 0 9 C-0.84454356 5.62182575 -1.10844919 3.32534757 0 0 Z " fill="#464443" transform="translate(264,254)"/>
<path d="M0 0 C1.32 0 2.64 0 4 0 C4 0.66 4 1.32 4 2 C3.34 2 2.68 2 2 2 C2.33 4.31 2.66 6.62 3 9 C3.33 9 3.66 9 4 9 C4 12.63 4 16.26 4 20 C2.68 20 1.36 20 0 20 C0 13.4 0 6.8 0 0 Z " fill="#565453" transform="translate(344,253)"/>
<path d="M0 0 C0.33 1.32 0.66 2.64 1 4 C3.97 4 6.94 4 10 4 C10 5.32 10 6.64 10 8 C7.03 8 4.06 8 1 8 C0.67 9.32 0.34 10.64 0 12 C0 10.68 0 9.36 0 8 C-0.66 8 -1.32 8 -2 8 C-2 6.68 -2 5.36 -2 4 C-1.34 4 -0.68 4 0 4 C0 2.68 0 1.36 0 0 Z " fill="#555453" transform="translate(321,257)"/>
<path d="M0 0 C0.33 1.32 0.66 2.64 1 4 C3.97 4 6.94 4 10 4 C10 5.32 10 6.64 10 8 C7.03 8 4.06 8 1 8 C0.67 9.32 0.34 10.64 0 12 C0 10.68 0 9.36 0 8 C-0.66 8 -1.32 8 -2 8 C-2 6.68 -2 5.36 -2 4 C-1.34 4 -0.68 4 0 4 C0 2.68 0 1.36 0 0 Z " fill="#52504F" transform="translate(161,257)"/>
<path d="M0 0 C0.99 0 1.98 0 3 0 C3 0.66 3 1.32 3 2 C5.31 2 7.62 2 10 2 C10.33 2.66 10.66 3.32 11 4 C8.03 4 5.06 4 2 4 C1.67 5.65 1.34 7.3 1 9 C-0.65 9 -2.3 9 -4 9 C-2.94124926 5.59687262 -1.99097846 2.98646769 0 0 Z " fill="#434140" transform="translate(260,264)"/>
<path d="M0 0 C0 3 0 3 -1 5 C6.26 5 13.52 5 21 5 C21 5.66 21 6.32 21 7 C11.1 7 1.2 7 -9 7 C-9 6.34 -9 5.68 -9 5 C-7.88625 4.54625 -6.7725 4.0925 -5.625 3.625 C-2.03800992 2.27534014 -2.03800992 2.27534014 0 0 Z " fill="#666463" transform="translate(146,129)"/>
<path d="M0 0 C1.65 0 3.3 0 5 0 C5 6.6 5 13.2 5 20 C4.67 20 4.34 20 4 20 C4 13.73 4 7.46 4 1 C3.01 1 2.02 1 1 1 C1.33 3.64 1.66 6.28 2 9 C-0.52053595 10.26026798 -1.8542098 9.91874445 -4.625 9.5625 C-5.44226563 9.46066406 -6.25953125 9.35882813 -7.1015625 9.25390625 C-7.72804687 9.17011719 -8.35453125 9.08632813 -9 9 C-9 8.67 -9 8.34 -9 8 C-6.03 8 -3.06 8 0 8 C0 5.36 0 2.72 0 0 Z M2 2 C2.33 2 2.66 2 3 2 C3 3.98 3 5.96 3 8 C2.67 8 2.34 8 2 8 C2 6.02 2 4.04 2 2 Z " fill="#7B7979" transform="translate(214,253)"/>
<path d="M0 0 C0.66 0 1.32 0 2 0 C2 1.32 2 2.64 2 4 C2.99 3.01 3.98 2.02 5 1 C8 5.75 8 5.75 8 8 C5.69 8 3.38 8 1 8 C1 7.34 1 6.68 1 6 C0.01 6 -0.98 6 -2 6 C-1.34 4.02 -0.68 2.04 0 0 Z " fill="#5F5D5D" transform="translate(262,258)"/>
<path d="M0 0 C1.32 0 2.64 0 4 0 C3.57405412 1.44096586 3.13373367 2.87768712 2.6875 4.3125 C2.44386719 5.11300781 2.20023437 5.91351563 1.94921875 6.73828125 C0.95817977 9.09964573 -0.08074943 10.33879993 -2 12 C-3.01911045 8.10885099 -3.16782969 6.39403493 -1.5625 2.625 C-1.046875 1.75875 -0.53125 0.8925 0 0 Z " fill="#454342" transform="translate(302,254)"/>
<path d="M0 0 C0.66 0 1.32 0 2 0 C0.52869627 4.3573226 -1.83080615 7.71934134 -4.625 11.3125 C-5.04523438 11.86228516 -5.46546875 12.41207031 -5.8984375 12.97851562 C-6.92720039 14.32292168 -7.9629009 15.66201413 -9 17 C-9.33 16.01 -9.66 15.02 -10 14 C-8.47804628 11.47126064 -6.93728146 9.17316591 -5.1875 6.8125 C-4.49043945 5.83120117 -4.49043945 5.83120117 -3.77929688 4.83007812 C-2.57740575 3.1764001 -1.29407735 1.58257925 0 0 Z " fill="#494746" transform="translate(237,77)"/>
<path d="M0 0 C0.99 1.32 1.98 2.64 3 4 C1.68 6.97 0.36 9.94 -1 13 C-2.32 13 -3.64 13 -5 13 C-3.58192622 8.52761347 -1.88695626 4.28853694 0 0 Z " fill="#4A4847" transform="translate(156,109)"/>
<path d="M0 0 C-0.3125 1.9375 -0.3125 1.9375 -1 4 C-1.99 4.33 -2.98 4.66 -4 5 C-4 5.99 -4 6.98 -4 8 C-2.68 8.33 -1.36 8.66 0 9 C-2.375 9.625 -2.375 9.625 -5 10 C-5.66 9.34 -6.32 8.68 -7 8 C-6.78167414 5.1617638 -6.35334968 3.46577913 -4.625 1.1875 C-3 0 -3 0 0 0 Z " fill="#8F8E8E" transform="translate(104,300)"/>
<path d="M0 0 C-0.33 2.64 -0.66 5.28 -1 8 C-1.66 8 -2.32 8 -3 8 C-3.33 6.02 -3.66 4.04 -4 2 C-4.33 3.65 -4.66 5.3 -5 7 C-6.32 7.33 -7.64 7.66 -9 8 C-8.64005447 5.3364031 -8.28838998 3.41816548 -6.75 1.1875 C-4.41988723 -0.39364795 -2.75498245 -0.22337696 0 0 Z " fill="#727170" transform="translate(255,301)"/>
<path d="M0 0 C3.16115776 1.36983503 3.9927092 1.9890638 6 5 C6.125 8.1875 6.125 8.1875 6 11 C5.01 9.68 4.02 8.36 3 7 C2.01 8.485 2.01 8.485 1 10 C0.566875 8.576875 0.566875 8.576875 0.125 7.125 C-0.76825109 3.94788422 -0.76825109 3.94788422 -3 2 C-2.01 1.34 -1.02 0.68 0 0 Z " fill="#575554" transform="translate(140,255)"/>
<path d="M0 0 C-0.33 2.64 -0.66 5.28 -1 8 C-1.66 8 -2.32 8 -3 8 C-3.33 6.02 -3.66 4.04 -4 2 C-4.33 3.65 -4.66 5.3 -5 7 C-5.99 7.33 -6.98 7.66 -8 8 C-8.36075949 3.55063291 -8.36075949 3.55063291 -6.8125 1.1875 C-4.44017475 -0.36678206 -2.77958655 -0.22537188 0 0 Z " fill="#6E6C6C" transform="translate(200,301)"/>
<path d="M0 0 C0.33 0 0.66 0 1 0 C1.66 2.31 2.32 4.62 3 7 C5.97 7.495 5.97 7.495 9 8 C9 8.33 9 8.66 9 9 C3.71502591 10.76165803 3.71502591 10.76165803 1 11 C-1.5 9.125 -1.5 9.125 -3 7 C-2.34 6.67 -1.68 6.34 -1 6 C-0.34227572 2.97065509 -0.34227572 2.97065509 0 0 Z " fill="#585655" transform="translate(97,261)"/>
<path d="M0 0 C0.66 0 1.32 0 2 0 C1.67 5.28 1.34 10.56 1 16 C0.01 15.67 -0.98 15.34 -2 15 C-1.34 10.05 -0.68 5.1 0 0 Z " fill="#6C6A6A" transform="translate(130,294)"/>
<path d="M0 0 C2.64 0 5.28 0 8 0 C8 1.32 8 2.64 8 4 C5.36 4 2.72 4 0 4 C0 2.68 0 1.36 0 0 Z " fill="#F7F7F6" transform="translate(69,265)"/>
<path d="M0 0 C1.99097846 2.98646769 2.94124926 5.59687262 4 9 C2.35 9 0.7 9 -1 9 C-1.66 6.69 -2.32 4.38 -3 2 C-2.01 1.34 -1.02 0.68 0 0 Z " fill="#4C4A49" transform="translate(50,264)"/>
<path d="M0 0 C0.33 0.99 0.66 1.98 1 3 C-2.63 3 -6.26 3 -10 3 C-10 4.32 -10 5.64 -10 7 C-10.66 7 -11.32 7 -12 7 C-12 5.02 -12 3.04 -12 1 C-11.21753906 1.01160156 -10.43507813 1.02320313 -9.62890625 1.03515625 C-8.61699219 1.04417969 -7.60507812 1.05320313 -6.5625 1.0625 C-5.04849609 1.07990234 -5.04849609 1.07990234 -3.50390625 1.09765625 C-1.05978933 1.28612676 -1.05978933 1.28612676 0 0 Z " fill="#403E3D" transform="translate(331,254)"/>
<path d="M0 0 C0.33 0.99 0.66 1.98 1 3 C-2.63 3 -6.26 3 -10 3 C-10 4.32 -10 5.64 -10 7 C-10.66 7 -11.32 7 -12 7 C-12 5.02 -12 3.04 -12 1 C-11.21753906 1.01160156 -10.43507812 1.02320313 -9.62890625 1.03515625 C-8.61699219 1.04417969 -7.60507813 1.05320313 -6.5625 1.0625 C-5.04849609 1.07990234 -5.04849609 1.07990234 -3.50390625 1.09765625 C-1.05978933 1.28612676 -1.05978933 1.28612676 0 0 Z " fill="#3F3D3C" transform="translate(245,254)"/>
<path d="M0 0 C0.33 0.99 0.66 1.98 1 3 C-2.63 3 -6.26 3 -10 3 C-10 4.32 -10 5.64 -10 7 C-10.66 7 -11.32 7 -12 7 C-12 5.02 -12 3.04 -12 1 C-11.21753906 1.01160156 -10.43507812 1.02320313 -9.62890625 1.03515625 C-8.61699219 1.04417969 -7.60507813 1.05320313 -6.5625 1.0625 C-5.04849609 1.07990234 -5.04849609 1.07990234 -3.50390625 1.09765625 C-1.05978933 1.28612676 -1.05978933 1.28612676 0 0 Z " fill="#3F3D3C" transform="translate(171,254)"/>
<path d="M0 0 C0.598125 0.226875 1.19625 0.45375 1.8125 0.6875 C1.4825 1.6775 1.1525 2.6675 0.8125 3.6875 C-1.25 4.375 -1.25 4.375 -3.1875 4.6875 C-2.8575 6.0075 -2.5275 7.3275 -2.1875 8.6875 C-3.1775 8.6875 -4.1675 8.6875 -5.1875 8.6875 C-5.55003776 3.24943353 -5.55003776 3.24943353 -3.9375 0.75 C-2.1875 -0.3125 -2.1875 -0.3125 0 0 Z " fill="#858483" transform="translate(226.1875,300.3125)"/>
<path d="M0 0 C0 1.32 0 2.64 0 4 C-1.32 4.33 -2.64 4.66 -4 5 C-3.67 6.32 -3.34 7.64 -3 9 C-3.99 9 -4.98 9 -6 9 C-6.36521739 3.52173913 -6.36521739 3.52173913 -4.6875 1.125 C-3 0 -3 0 0 0 Z " fill="#848382" transform="translate(284,300)"/>
<path d="M0 0 C1.32 0 2.64 0 4 0 C3.49396008 2.16874252 3.00016187 3.99967627 2 6 C-0.97 6 -3.94 6 -7 6 C-6.67 5.34 -6.34 4.68 -6 4 C-4.02 4 -2.04 4 0 4 C0 2.68 0 1.36 0 0 Z " fill="#3C3A39" transform="translate(46,262)"/>
<path d="M0 0 C2.31 0 4.62 0 7 0 C7.33 1.32 7.66 2.64 8 4 C5.36 4 2.72 4 0 4 C0 2.68 0 1.36 0 0 Z " fill="#EAEAEA" transform="translate(69,257)"/>
<path d="M0 0 C3.375 -0.125 3.375 -0.125 7 0 C7.66 0.66 8.32 1.32 9 2 C8.67 2.99 8.34 3.98 8 5 C5.03 4.505 5.03 4.505 2 4 C2 3.34 2 2.68 2 2 C1.34 2 0.68 2 0 2 C0 1.34 0 0.68 0 0 Z " fill="#565454" transform="translate(100,253)"/>
<path d="M0 0 C2.0625 0.4375 2.0625 0.4375 4 1 C4 1.66 4 2.32 4 3 C3.01 3 2.02 3 1 3 C0.67 4.98 0.34 6.96 0 9 C0.66 9.33 1.32 9.66 2 10 C0.68 10 -0.64 10 -2 10 C-1.85950482 8.52031676 -1.71245174 7.04125484 -1.5625 5.5625 C-1.48128906 4.73878906 -1.40007812 3.91507812 -1.31640625 3.06640625 C-1 1 -1 1 0 0 Z " fill="#7C7B7A" transform="translate(311,299)"/>
<path d="M0 0 C0.94875 0.04125 1.8975 0.0825 2.875 0.125 C1.125 5 1.125 5 -1.125 6.125 C-1.455 4.805 -1.785 3.485 -2.125 2.125 C-2.785 3.445 -3.445 4.765 -4.125 6.125 C-4.75 4.25 -4.75 4.25 -5.125 2.125 C-3.125 0.125 -3.125 0.125 0 0 Z " fill="#777675" transform="translate(268.125,300.875)"/>
<path d="M0 0 C2.0625 0.4375 2.0625 0.4375 4 1 C4 1.66 4 2.32 4 3 C2.68 3 1.36 3 0 3 C0.33 5.64 0.66 8.28 1 11 C0.01 10.67 -0.98 10.34 -2 10 C-1.85950482 8.52031676 -1.71245174 7.04125484 -1.5625 5.5625 C-1.48128906 4.73878906 -1.40007812 3.91507812 -1.31640625 3.06640625 C-1 1 -1 1 0 0 Z " fill="#7A7878" transform="translate(181,299)"/>
<path d="M0 0 C0.66 0 1.32 0 2 0 C1.34 1.32 0.68 2.64 0 4 C-0.66 4 -1.32 4 -2 4 C-2 5.32 -2 6.64 -2 8 C-2.99 7.67 -3.98 7.34 -5 7 C-4.67 5.02 -4.34 3.04 -4 1 C-3.01 1.33 -2.02 1.66 -1 2 C-0.67 1.34 -0.34 0.68 0 0 Z " fill="#72706F" transform="translate(156,301)"/>
<path d="M0 0 C1.65 0 3.3 0 5 0 C5.6875 1.8125 5.6875 1.8125 6 4 C4.5625 5.75 4.5625 5.75 3 7 C2.01 4.69 1.02 2.38 0 0 Z " fill="#42403F" transform="translate(286,254)"/>
<path d="M0 0 C2.4375 0.75 2.4375 0.75 5 2 C5.8125 4.125 5.8125 4.125 6 6 C5.67 5.34 5.34 4.68 5 4 C3.68 4 2.36 4 1 4 C1 4.99 1 5.98 1 7 C0.01 7 -0.98 7 -2 7 C-1.42415568 4.61435923 -0.77772405 2.33317216 0 0 Z " fill="#626160" transform="translate(263,308)"/>
<path d="M0 0 C1.98 0 3.96 0 6 0 C6 0.66 6 1.32 6 2 C5.01 2 4.02 2 3 2 C2.67 3.98 2.34 5.96 2 8 C1.34 8 0.68 8 0 8 C0 5.36 0 2.72 0 0 Z " fill="#6B6A69" transform="translate(84,301)"/>
<path d="M0 0 C0.99 0.33 1.98 0.66 3 1 C3 1.66 3 2.32 3 3 C2.01 3.495 2.01 3.495 1 4 C1.33 5.32 1.66 6.64 2 8 C0.68 7.01 -0.64 6.02 -2 5 C-1.125 1.125 -1.125 1.125 0 0 Z " fill="#706E6E" transform="translate(168,300)"/>
<path d="M0 0 C1.5 1.3125 1.5 1.3125 3 3 C3 3.99 3 4.98 3 6 C1.35 6 -0.3 6 -2 6 C-1.34 4.02 -0.68 2.04 0 0 Z " fill="#EAEAE9" transform="translate(266,259)"/>
<path d="M0 0 C0.66 0 1.32 0 2 0 C2.66 1.98 3.32 3.96 4 6 C2.35 6 0.7 6 -1 6 C-0.67 4.02 -0.34 2.04 0 0 Z " fill="#EBEAEA" transform="translate(42,259)"/>
<path d="M0 0 C1.98 0.495 1.98 0.495 4 1 C3.67 2.32 3.34 3.64 3 5 C1.68 4.67 0.36 4.34 -1 4 C-0.67 2.68 -0.34 1.36 0 0 Z " fill="#D1D1D0" transform="translate(264,311)"/>
<path d="M0 0 C-0.33 0.99 -0.66 1.98 -1 3 C-3.64 3 -6.28 3 -9 3 C-9 2.34 -9 1.68 -9 1 C-5.94152152 0.45627049 -3.11227195 0 0 0 Z " fill="#413F3E" transform="translate(140,254)"/>
<path d="M0 0 C0.33 0.66 0.66 1.32 1 2 C1.66 2 2.32 2 3 2 C2.34 3.98 1.68 5.96 1 8 C0.67 7.34 0.34 6.68 0 6 C-0.66 6 -1.32 6 -2 6 C-1.34 4.02 -0.68 2.04 0 0 Z " fill="#504E4D" transform="translate(171,76)"/>
<path d="M0 0 C0.99 0 1.98 0 3 0 C2.67 2.31 2.34 4.62 2 7 C1.34 7 0.68 7 0 7 C0 4.69 0 2.38 0 0 Z " fill="#373534" transform="translate(94,260)"/>
<path d="M0 0 C0.33 0 0.66 0 1 0 C1 2.31 1 4.62 1 7 C0.01 6.67 -0.98 6.34 -2 6 C-1.125 1.125 -1.125 1.125 0 0 Z " fill="#E2E2E2" transform="translate(251,302)"/>
<path d="M0 0 C0.33 0 0.66 0 1 0 C1 2.31 1 4.62 1 7 C0.01 6.67 -0.98 6.34 -2 6 C-1.125 1.125 -1.125 1.125 0 0 Z " fill="#E3E3E3" transform="translate(196,302)"/>
<path d="M0 0 C0.33 0 0.66 0 1 0 C1 2.31 1 4.62 1 7 C0.01 6.67 -0.98 6.34 -2 6 C-1.125 1.125 -1.125 1.125 0 0 Z " fill="#E5E4E4" transform="translate(116,302)"/>
</svg>
