<?xml version="1.0" encoding="UTF-8"?>
<svg version="1.1" xmlns="http://www.w3.org/2000/svg" width="500" height="500">
<path d="M0 0 C0.99 0.33 1.98 0.66 3 1 C1.51972869 5.37574705 -0.85346752 8.74202497 -3.625 12.375 C-8.53997848 18.94441841 -13.26711368 25.62974988 -17.9375 32.375 C-19.31631743 34.36464489 -20.69522287 36.35422879 -22.07421875 38.34375 C-22.7398584 39.30410156 -23.40549805 40.26445312 -24.09130859 41.25390625 C-28.21360038 47.18477578 -32.39046723 53.07714131 -36.56445312 58.97167969 C-38.54335003 61.76771293 -40.51853772 64.5663563 -42.4934082 67.36523438 C-43.48885476 68.77573263 -44.48477709 70.18589526 -45.48120117 71.59570312 C-48.10216396 75.30481618 -50.71477178 79.01948647 -53.31640625 82.7421875 C-53.85974609 83.51755859 -54.40308594 84.29292969 -54.96289062 85.09179688 C-56.00438641 86.57837633 -57.04357114 88.06657847 -58.08007812 89.55664062 C-58.54994141 90.22630859 -59.01980469 90.89597656 -59.50390625 91.5859375 C-59.91455322 92.1742334 -60.3252002 92.7625293 -60.74829102 93.36865234 C-62.04812173 95.06271687 -63.459016 96.52479824 -65 98 C-65.66 97.67 -66.32 97.34 -67 97 C-65.51971731 92.6242193 -63.1464446 89.25804914 -60.375 85.625 C-55.50625452 79.11495639 -50.81646906 72.49495497 -46.1875 65.8125 C-45.50703613 64.83087891 -44.82657227 63.84925781 -44.12548828 62.83789062 C-42.75118817 60.85484666 -41.37716324 58.87161196 -40.00341797 56.88818359 C-31.24457975 44.26119649 -22.39170676 31.69956207 -13.52050781 19.15136719 C-10.76179821 15.24806773 -8.00612532 11.34262443 -5.25 7.4375 C-4.23438721 5.9986893 -3.2187634 4.55988637 -2.203125 3.12109375 C-1.47609375 2.09113281 -0.7490625 1.06117188 0 0 Z " fill="#848484" transform="translate(283,148)"/>
<path d="M0 0 C0.33 0.99 0.66 1.98 1 3 C-0.3567482 5.3632729 -1.72775351 7.48791953 -3.3125 9.6875 C-3.72951172 10.29400391 -4.14652344 10.90050781 -4.57617188 11.52539062 C-5.65862011 13.06015375 -6.82397149 14.53570872 -8 16 C-8.66 16 -9.32 16 -10 16 C-9.44590036 11.77973426 -8.03747714 9.1871824 -5.5625 5.75 C-4.94503906 4.87859375 -4.32757813 4.0071875 -3.69140625 3.109375 C-2 1 -2 1 0 0 Z " fill="#818181" transform="translate(250,197)"/>
<path d="M0 0 C0.66 1.32 1.32 2.64 2 4 C-0.64 7.63 -3.28 11.26 -6 15 C-6.99 14.67 -7.98 14.34 -9 14 C-7.45158425 10.65291949 -5.50894136 7.75332488 -3.375 4.75 C-2.74335938 3.85796875 -2.11171875 2.9659375 -1.4609375 2.046875 C-0.73777344 1.03367188 -0.73777344 1.03367188 0 0 Z " fill="#8D8D8D" transform="translate(239,211)"/>
<path d="M0 0 C0.99 0.33 1.98 0.66 3 1 C1.6062718 5.43458973 -0.60582235 7.87378374 -4 11 C-4.66 10.67 -5.32 10.34 -6 10 C-4.34832443 6.4213696 -2.21713508 3.25179812 0 0 Z " fill="#909090" transform="translate(283,148)"/>
<path d="M0 0 C0.66 1.32 1.32 2.64 2 4 C0.35 6.31 -1.3 8.62 -3 11 C-3.99 10.67 -4.98 10.34 -6 10 C-4.6302836 6.00499382 -2.74277578 3.19990508 0 0 Z " fill="#8F8F8F" transform="translate(222,235)"/>
</svg>
